<?xml version="1.0" encoding="UTF-8" standalone="no"?>
<svg width="6px" height="26px" viewBox="0 0 6 26" version="1.1" xmlns="http://www.w3.org/2000/svg" xmlns:xlink="http://www.w3.org/1999/xlink">
    <!-- Generator: Sketch 3.6.1 (26313) - http://www.bohemiancoding.com/sketch -->
    <title>Group 2</title>
    <desc>Created with Sketch.</desc>
    <defs></defs>
    <g id="Page-1" stroke="none" stroke-width="1" fill="none" fill-rule="evenodd">
        <g id="Group-2" fill="#000000">
            <g id="Group">
                <rect id="Rectangle-1" x="0" y="0" width="2" height="2"></rect>
                <rect id="Rectangle-1" x="4" y="0" width="2" height="2"></rect>
            </g>
            <g id="Group" transform="translate(0.000000, 4.000000)">
                <rect id="Rectangle-1" x="0" y="0" width="2" height="2"></rect>
                <rect id="Rectangle-1" x="4" y="0" width="2" height="2"></rect>
            </g>
            <g id="Group" transform="translate(0.000000, 8.000000)">
                <rect id="Rectangle-1" x="0" y="0" width="2" height="2"></rect>
                <rect id="Rectangle-1" x="4" y="0" width="2" height="2"></rect>
            </g>
            <g id="Group" transform="translate(0.000000, 12.000000)">
                <rect id="Rectangle-1" x="0" y="0" width="2" height="2"></rect>
                <rect id="Rectangle-1" x="4" y="0" width="2" height="2"></rect>
            </g>
            <g id="Group" transform="translate(0.000000, 16.000000)">
                <rect id="Rectangle-1" x="0" y="0" width="2" height="2"></rect>
                <rect id="Rectangle-1" x="4" y="0" width="2" height="2"></rect>
            </g>
            <g id="Group" transform="translate(0.000000, 20.000000)">
                <rect id="Rectangle-1" x="0" y="0" width="2" height="2"></rect>
                <rect id="Rectangle-1" x="4" y="0" width="2" height="2"></rect>
            </g>
            <g id="Group" transform="translate(0.000000, 24.000000)">
                <rect id="Rectangle-1" x="0" y="0" width="2" height="2"></rect>
                <rect id="Rectangle-1" x="4" y="0" width="2" height="2"></rect>
            </g>
        </g>
    </g>
</svg>