<svg width="12px" height="12px" viewBox="0 0 12 12" version="1.1" xmlns="http://www.w3.org/2000/svg" xmlns:xlink="http://www.w3.org/1999/xlink">
    <g id="Lite-vs-Admin-Columns-Pro" stroke="none" stroke-width="1" fill="none" fill-rule="evenodd">
        <g id="Settings" transform="translate(-614.000000, -194.000000)">
            <rect fill="#F1F1F1" x="0" y="0" width="1265" height="2335"></rect>
            <g id="Menu" transform="translate(-2.000000, 153.000000)" fill="#FE3D6C" fill-rule="nonzero">
                <g id="Group-5" transform="translate(69.000000, 38.516129)">
                    <g id="Pro" transform="translate(398.000000, 1.032258)">
                        <g id="icon/external-link-alt-duotone" transform="translate(149.000000, 1.451613)">
                            <path d="M9.375,7.5 L10.125,7.5 C10.3321068,7.5 10.5,7.66789322 10.5,7.875 L10.5,10.875 C10.5,11.4963203 9.99632034,12 9.375,12 L1.125,12 C0.503679656,12 0,11.4963203 0,10.875 L0,2.625 C0,2.00367966 0.503679656,1.5 1.125,1.5 L4.875,1.5 C5.08210678,1.5 5.25,1.66789322 5.25,1.875 L5.25,2.625 C5.25,2.83210678 5.08210678,3 4.875,3 L1.5,3 L1.5,10.5 L9,10.5 L9,7.875 C9,7.66789322 9.16789322,7.5 9.375,7.5 Z" id="Path" opacity="0.4"></path>
                            <path d="M12,0.5625 L12,3.5625 C12,4.06570312 11.390625,4.3125 11.0390625,3.9609375 L10.2021094,3.12398438 L4.4953125,8.83054687 C4.2756456,9.0501992 3.91951065,9.0501992 3.69984375,8.83054687 L3.16945312,8.30015625 C2.9498008,8.08048935 2.9498008,7.7243544 3.16945312,7.5046875 L8.8771875,1.7971875 L8.04023438,0.9609375 C7.6875,0.60703125 7.93734375,0 8.4375,0 L11.4375,0 C11.7481602,0 12,0.251839828 12,0.5625 Z" id="Path"></path>
                        </g>
                    </g>
                </g>
            </g>
        </g>
    </g>
</svg>