<?xml version="1.0" encoding="UTF-8"?>
<svg width="179px" height="17px" viewBox="0 0 179 17" version="1.1" xmlns="http://www.w3.org/2000/svg" xmlns:xlink="http://www.w3.org/1999/xlink">
    <!-- Generator: Sketch 52.6 (67491) - http://www.bohemiancoding.com/sketch -->
    <title>logo</title>
    <desc>Created with Sketch.</desc>
    <g id="Home" stroke="none" stroke-width="1" fill="none" fill-rule="evenodd">
        <g id="Home---V1" transform="translate(-257.000000, -35.000000)">
            <g id="Top" transform="translate(-1.000000, 0.000000)">
                <g id="Menu" transform="translate(258.000000, 23.000000)">
                    <g id="logo" transform="translate(0.000000, 12.000000)">
                        <g id="text_white" transform="translate(32.321457, 0.000000)" fill="#000000">
                            <g id="text">
                                <path d="M0.0435770751,11.5613208 C0.0435770751,9.36792453 1.68498024,8.27830189 4.95326087,8.27830189 C5.72312253,8.27830189 6.49298419,8.3490566 7.26284585,8.49056604 L7.26284585,7.65566038 C7.26284585,6.66509434 6.53656126,6.18396226 5.08399209,6.18396226 C3.8493083,6.18396226 2.48389328,6.35377358 0.973221344,6.70754717 L0.973221344,4.51415094 C2.48389328,4.16037736 3.8493083,3.99056604 5.08399209,3.99056604 C8.43942688,3.99056604 10.1244071,5.19339623 10.1244071,7.61320755 L10.1244071,15 L8.46847826,15 L7.45167984,14.009434 C6.46393281,14.6603774 5.38903162,15 4.1979249,15 C1.42351779,15 0.0435770751,13.8537736 0.0435770751,11.5613208 L0.0435770751,11.5613208 Z M4.95326087,10.1745283 C3.58784585,10.1745283 2.89061265,10.6273585 2.89061265,11.5330189 C2.89061265,12.509434 3.47164032,13.004717 4.61916996,13.004717 C5.56333992,13.004717 6.44940711,12.7216981 7.26284585,12.1415094 L7.26284585,10.3867925 C6.53656126,10.245283 5.7666996,10.1745283 4.95326087,10.1745283 L4.95326087,10.1745283 Z" id="Shape"></path>
                                <path d="M22.805336,14.3349057 C21.0767787,14.7735849 19.3917984,15 17.7358696,15 C14.0753953,15 12.2596838,13.0896226 12.2596838,9.26886792 C12.2596838,5.74528302 14.0463439,3.97641509 17.619664,3.97641509 C18.375,3.97641509 19.1593874,4.14622642 19.9583004,4.5 L19.9583004,0 L22.805336,0 L22.805336,14.3349057 L22.805336,14.3349057 Z M19.9583004,6.86320755 C19.3772727,6.48113208 18.6364625,6.29716981 17.7358696,6.29716981 C15.9637352,6.29716981 15.077668,7.25943396 15.077668,9.19811321 C15.077668,11.504717 15.9927866,12.6509434 17.8375494,12.6509434 C18.5783597,12.6509434 19.2901186,12.5518868 19.9437747,12.3537736 L19.9437747,6.86320755 L19.9583004,6.86320755 Z" id="Shape"></path>
                                <path d="M25.5071146,15 L25.5071146,3.99056604 L27.7150198,3.99056604 L28.0491107,5.58962264 C29.0659091,4.52830189 30.2715415,3.99056604 31.6950593,3.99056604 C33.1185771,3.99056604 34.0917984,4.5 34.6147233,5.50471698 C35.7767787,4.5 36.9824111,3.99056604 38.2461462,3.99056604 C40.8462451,3.99056604 42.1390316,5.39150943 42.1390316,8.17924528 L42.1390316,15 L39.291996,15 L39.291996,8.06603774 C39.291996,6.8490566 38.7254941,6.22641509 37.5924901,6.22641509 C36.75,6.22641509 35.9365613,6.59433962 35.1521739,7.34433962 L35.1521739,15 L32.3051383,15 L32.3051383,8.09433962 C32.3051383,6.8490566 31.7822134,6.22641509 30.7363636,6.22641509 C29.9083992,6.22641509 29.1240119,6.59433962 28.3832016,7.34433962 L28.3832016,15 L25.5071146,15 L25.5071146,15 Z" id="Shape"></path>
                                <path d="M47.6733202,0 L47.6733202,2.20754717 L44.8262846,2.20754717 L44.8262846,0 L47.6733202,0 L47.6733202,0 Z M47.6733202,3.99056604 L47.6733202,15 L44.8262846,15 L44.8262846,3.99056604 L47.6733202,3.99056604 L47.6733202,3.99056604 Z" id="Shape"></path>
                                <path d="M50.3750988,15 L50.3750988,3.99056604 L52.583004,3.99056604 L52.9316206,5.60377358 C54.0210474,4.52830189 55.2557312,3.99056604 56.6356719,3.99056604 C59.3083992,3.99056604 60.6447628,5.3490566 60.6447628,8.06603774 L60.6447628,15 L57.7977273,15 L57.7977273,8.05188679 C57.7977273,6.83490566 57.1731225,6.22641509 55.9384387,6.22641509 C55.0087945,6.22641509 54.1082016,6.58018868 53.2221344,7.30188679 L53.2221344,15 L50.3750988,15 L50.3750988,15 Z" id="Shape"></path>
                                <path d="M72.1200593,14.6886792 C71.190415,14.9009434 70.1881423,15 69.0987154,15 C65.0750988,15 63.0705534,13.0896226 63.0705534,9.28301887 C63.0705534,5.74528302 65.0750988,3.99056604 69.0987154,3.99056604 C70.1736166,3.99056604 71.1758893,4.08962264 72.1200593,4.30188679 L72.1200593,5.87264151 C71.190415,5.66037736 70.1445652,5.56132075 68.9970356,5.56132075 C66.3824111,5.56132075 65.0605731,6.80660377 65.0605731,9.28301887 C65.0605731,12.0424528 66.3678854,13.4292453 68.9970356,13.4292453 C70.1445652,13.4292453 71.190415,13.3301887 72.1200593,13.1179245 L72.1200593,14.6886792 L72.1200593,14.6886792 Z" id="Shape"></path>
                                <path d="M74.1100791,9.49528302 C74.1100791,5.83018868 75.9112648,3.99056604 79.4991107,3.99056604 C83.0869565,3.99056604 84.8881423,5.83018868 84.8881423,9.49528302 C84.8881423,13.1603774 83.1014822,14.9858491 79.4991107,14.9858491 C75.9112648,14.9858491 74.1246047,13.1603774 74.1100791,9.49528302 L74.1100791,9.49528302 Z M79.4991107,13.4292453 C81.7651186,13.4292453 82.8835968,12.0990566 82.8835968,9.45283019 C82.8835968,6.86320755 81.7505929,5.56132075 79.4991107,5.56132075 C77.2331028,5.56132075 76.1146245,6.86320755 76.1146245,9.45283019 C76.1000988,12.0990566 77.2331028,13.4292453 79.4991107,13.4292453 L79.4991107,13.4292453 Z" id="Shape"></path>
                                <polygon id="Shape" points="89.6670949 0 89.6670949 15 87.6770751 15 87.6770751 0"></polygon>
                                <path d="M102.740217,3.99056604 L102.740217,15 L101.374802,15 L101.026186,13.5990566 C99.6607708,14.5330189 98.28083,15 96.8863636,15 C94.2862648,15 92.9934783,13.6273585 92.9934783,10.8962264 L92.9934783,3.99056604 L94.9980237,3.99056604 L94.9980237,10.9386792 C94.9980237,12.5801887 95.8259881,13.3867925 97.4964427,13.3867925 C98.6439723,13.3867925 99.7188735,12.9198113 100.764723,11.9858491 L100.764723,3.99056604 L102.740217,3.99056604 L102.740217,3.99056604 Z" id="Shape"></path>
                                <path d="M105.979447,15 L105.979447,3.99056604 L107.330336,3.99056604 L107.664427,5.37735849 C108.753854,4.45754717 109.930435,3.99056604 111.208696,3.99056604 C112.850099,3.99056604 113.968577,4.5 114.56413,5.50471698 C115.784289,4.5 117.033498,3.99056604 118.297233,3.99056604 C120.897332,3.99056604 122.190119,5.39150943 122.190119,8.17924528 L122.190119,15 L120.200099,15 L120.200099,8.06603774 C120.200099,6.4245283 119.48834,5.60377358 118.064822,5.60377358 C117.004447,5.60377358 116.002174,6.08490566 115.087055,7.03301887 L115.087055,15 L113.097036,15 L113.097036,8.09433962 C113.097036,6.4245283 112.399802,5.60377358 110.99081,5.60377358 C109.872332,5.60377358 108.870059,6.08490566 107.983992,7.03301887 L107.983992,15 L105.979447,15 L105.979447,15 Z" id="Shape"></path>
                                <path d="M125.400296,15 L125.400296,3.99056604 L126.751186,3.99056604 L127.099802,5.39150943 C128.261858,4.45754717 129.525593,3.99056604 130.905534,3.99056604 C133.723518,3.99056604 135.13251,5.36320755 135.13251,8.09433962 L135.13251,15 L133.14249,15 L133.14249,8.05188679 C133.14249,6.41037736 132.3,5.60377358 130.629545,5.60377358 C129.482016,5.60377358 128.407115,6.07075472 127.375791,7.00471698 L127.375791,15 L125.400296,15 L125.400296,15 Z" id="Shape"></path>
                                <path d="M138.270059,14.4764151 L138.270059,12.7924528 C139.591897,13.2169811 140.942787,13.4292453 142.293676,13.4292453 C144.094862,13.4292453 144.995455,12.9056604 144.995455,11.8584906 C144.995455,10.8820755 144.37085,10.3867925 143.107115,10.3867925 L141.494763,10.3867925 C139.054447,10.3867925 137.834289,9.29716981 137.834289,7.13207547 C137.834289,5.03773585 139.403063,3.99056604 142.540613,3.99056604 C143.891502,3.99056604 145.227866,4.16037736 146.549704,4.51415094 L146.549704,6.19811321 C145.227866,5.77358491 143.876976,5.56132075 142.540613,5.56132075 C140.666798,5.56132075 139.722628,6.08490566 139.722628,7.13207547 C139.722628,8.10849057 140.318182,8.60377358 141.494763,8.60377358 L143.107115,8.60377358 C145.692688,8.60377358 146.985474,9.69339623 146.985474,11.8584906 C146.985474,13.9528302 145.4167,15 142.293676,15 C140.942787,15 139.606423,14.8301887 138.270059,14.4764151 L138.270059,14.4764151 Z" id="Shape"></path>
                            </g>
                        </g>
                        <g id="ac_vignet_pink" transform="translate(0.000000, 1.685950)" fill="#FE3D6C">
                            <g transform="translate(0.038449, 0.079101)" id="Shape">
                                <path d="M16.5881052,4.45221412 C16.9789244,4.07772882 17.4421176,3.77259265 17.9776847,3.55067543 C18.5132518,3.32875822 19.0777685,3.21779961 19.6712347,3.21779961 C20.3660245,3.21779961 21.0029151,3.32875822 21.6108561,3.56454526 C22.2043223,3.8003323 22.7109399,4.18868742 23.1307087,4.71574081 L26.8073044,4.71574081 C26.4454347,3.89742108 26.0111912,3.19005996 25.4900988,2.60752727 C24.9690065,2.02499458 24.3900151,1.53955068 23.7675993,1.16506538 C23.1451834,0.790580077 22.4793433,0.513183558 21.7700787,0.346745648 C21.075289,0.180307737 20.3660245,0.0970887813 19.6712347,0.0970887813 C18.6001005,0.0970887813 17.6013403,0.291266344 16.6749539,0.679621469 C15.7485676,1.06797659 14.9379796,1.58116015 14.2576646,2.2469118 C14.0405428,2.45495919 13.8378958,2.66300657 13.6641984,2.89879361 C13.2589043,3.39810735 12.9115095,3.95290038 12.6364885,4.56317272 C12.2601441,5.4092321 12.0574971,6.32464061 12.0430223,7.2816586 L12.0430223,7.42035686 L12.0430223,7.57292494 C12.0285475,8.12771798 11.9127492,8.64090154 11.7101022,9.11247562 C11.4785056,9.62565918 11.1745351,10.0694936 10.7692411,10.4439789 C10.3639471,10.8184642 9.9007539,11.1097305 9.3651868,11.3177779 C8.8296197,11.5258253 8.26510303,11.6229141 7.657162,11.6229141 C7.04922098,11.6229141 6.48470431,11.5119555 5.94913721,11.2900383 C5.41357011,11.0681211 4.95037695,10.7629849 4.55955771,10.3884996 C4.16873848,10.0140143 3.85029318,9.57017987 3.6186966,9.05699632 C3.38710002,8.54381276 3.27130173,8.00288955 3.27130173,7.43422668 L3.27130173,7.43422668 C3.27130173,6.86556382 3.38710002,6.31077079 3.6186966,5.81145705 C3.85029318,5.2982735 4.16873848,4.85443907 4.55955771,4.47995377 C4.95037695,4.10546847 5.41357011,3.8003323 5.94913721,3.57841508 C6.02151114,3.55067543 6.09388507,3.52293578 6.166259,3.49519613 C6.64392696,3.32875822 7.13606969,3.24553926 7.657162,3.24553926 C8.26510303,3.24553926 8.8296197,3.35649787 9.3651868,3.57841508 C9.9007539,3.8003323 10.3639471,4.10546847 10.7547663,4.47995377 C10.9284637,4.64639168 11.0876864,4.82669941 11.2179595,5.02087698 C11.3048082,4.71574081 11.4206065,4.42447446 11.5508795,4.13320812 C11.8548501,3.43971682 12.2601441,2.78783501 12.737812,2.21917214 C12.7812364,2.17756267 12.810186,2.12208336 12.8536103,2.08047389 C12.2167197,1.51181102 11.4785056,1.06797659 10.6534428,0.721230947 C9.72705646,0.277396518 8.7282962,0.0832189554 7.67163679,0.0832189554 C7.15054448,0.0832189554 6.64392696,0.124828433 6.166259,0.221917214 C5.65964148,0.319005996 5.15302396,0.471574081 4.68983079,0.665751643 C3.76344446,1.05410677 2.95285642,1.56729033 2.25806668,2.23304197 C1.54880214,2.88492379 1.01323505,3.66163404 0.607941029,4.53543307 C0.20264701,5.42310193 0,6.38011992 0,7.40648703 L0,7.40648703 C0,8.43285415 0.188172223,9.38987214 0.550041883,10.277541 C0.911911543,11.1652099 1.43300385,11.9419201 2.09884403,12.6076717 C2.7646842,13.2734234 3.57527224,13.7866069 4.51613336,14.1610922 C5.45699447,14.5355775 6.51365388,14.7297551 7.67163679,14.7297551 C9.30728765,14.7297551 10.7547663,14.2859207 12.0574971,13.4121216 L12.0574971,14.1610922 L15.314324,14.1610922 L15.314324,13.4121216 L15.314324,7.64227407 L15.314324,7.40648703 L15.314324,7.26778877 C15.3287988,6.74073539 15.4445971,6.24142166 15.6617189,5.7837174 C15.8788407,5.27053384 16.197286,4.82669941 16.5881052,4.45221412 L16.5881052,4.45221412 Z"></path>
                                <path d="M21.6687552,11.2206892 C21.075289,11.4842158 20.4094488,11.6090443 19.6712347,11.6090443 C19.0777685,11.6090443 18.5132518,11.4980857 17.9776847,11.2761685 C17.4421176,11.0542512 16.9789244,10.7491151 16.5881052,10.3746298 C16.5591556,10.3468901 16.5157313,10.3052806 16.4867817,10.2636712 L16.4867817,14.0640035 C16.5591556,14.0917431 16.6170548,14.1194828 16.6894287,14.1472224 C17.615815,14.5355775 18.6145753,14.7297551 19.6857095,14.7297551 C20.4094488,14.7297551 21.1331881,14.6326663 21.8135031,14.4662284 C22.5082928,14.2859207 23.1596582,14.0085242 23.782074,13.6340389 C24.4044899,13.2595536 24.9690065,12.7741097 25.4756241,12.1777071 C25.9967164,11.5813046 26.43096,10.8878133 26.7783548,10.0833634 L23.1307087,10.0833634 C22.7543642,10.5688073 22.2766963,10.9571625 21.6687552,11.2206892 L21.6687552,11.2206892 Z"></path>
                            </g>
                        </g>
                    </g>
                </g>
            </g>
        </g>
    </g>
</svg>