<?xml version="1.0" encoding="UTF-8"?>
<svg width="18px" height="17px" viewBox="0 0 18 17" version="1.1" xmlns="http://www.w3.org/2000/svg" xmlns:xlink="http://www.w3.org/1999/xlink">
    <title>icon/page-menu-icon</title>
    <g id="icon/page-menu-icon" stroke="none" stroke-width="1" fill="none" fill-rule="evenodd">
        <path d="M5.59894661,3.5 C6.22846364,3.5 6.82348659,3.61799719 7.37539193,3.88770506 C7.86693263,4.09841434 8.3067322,4.36812221 8.68616712,4.71368542 C8.66029656,4.73897053 8.64304952,4.77268402 8.61717895,4.79796913 C8.33260276,5.14353234 8.09114417,5.53966578 7.91005023,5.96108432 C7.83243854,6.13808011 7.76345038,6.31507591 7.71170925,6.50050007 C7.63409756,6.38250287 7.53923883,6.27293405 7.43575658,6.1717936 C7.20292151,5.94422758 6.92696884,5.75880342 6.60789856,5.62394949 C6.28882829,5.48909555 5.95251097,5.42166858 5.59032309,5.42166858 C5.27987633,5.42166858 4.98667662,5.47223881 4.70210042,5.57337926 C4.65898282,5.590236 4.61586521,5.60709274 4.57274761,5.62394949 C4.25367733,5.75880342 3.97772466,5.94422758 3.74488959,6.1717936 C3.51205453,6.39935962 3.32233707,6.66906749 3.18436073,6.98091721 C3.04638439,7.28433857 2.97739623,7.62147341 2.97739623,7.96703662 L2.97739623,7.96703662 L2.98567481,8.17235173 C3.00775102,8.44340814 3.07397966,8.70367624 3.18436073,8.95315602 C3.32233707,9.26500575 3.51205453,9.53471362 3.74488959,9.76227963 C3.97772466,9.98984565 4.25367733,10.1752698 4.57274761,10.3101237 C4.89181789,10.4449777 5.2281352,10.5124047 5.59032309,10.5124047 C5.95251097,10.5124047 6.28882829,10.4534061 6.60789856,10.3269805 C6.92696884,10.2005549 7.20292151,10.0235591 7.4443801,9.79599312 C7.68583869,9.5684271 7.86693263,9.29871923 8.00490896,8.9868695 C8.12563826,8.70030489 8.19462643,8.38845516 8.20324995,8.05132033 L8.20324995,8.05132033 L8.20324995,7.87432454 C8.21187347,7.29276694 8.33260276,6.73649445 8.55681431,6.22236382 C8.72066121,5.8515155 8.92762571,5.51438066 9.1690843,5.21095931 C9.27256655,5.067677 9.39329584,4.94125144 9.52264866,4.81482587 C9.92795414,4.41026407 10.4108713,4.09841434 10.9627767,3.86241995 C11.514682,3.62642556 12.109705,3.50842837 12.7478455,3.50842837 C13.1617745,3.50842837 13.584327,3.5589986 13.9982561,3.66013905 C14.4208086,3.7612795 14.8174905,3.92984692 15.1883019,4.15741294 C15.5591134,4.38497895 15.9040542,4.67997194 16.2145009,5.03396352 C16.5249477,5.3879551 16.7836533,5.81780202 16.9992414,6.31507591 L16.9992414,6.31507591 L14.808867,6.31507591 C14.5587849,5.99479781 14.2569617,5.75880342 13.9033973,5.61552111 C13.5412094,5.47223881 13.1617745,5.40481184 12.7478455,5.40481184 C12.3942811,5.40481184 12.0579638,5.47223881 11.7388936,5.60709274 C11.4198233,5.74194668 11.1438706,5.92737084 10.9110355,6.15493686 C10.6782005,6.38250287 10.488483,6.65221074 10.3591302,6.96406047 C10.2297774,7.24219671 10.1607892,7.54561807 10.1521657,7.86589616 L10.1521657,7.86589616 L10.1521657,12.0547965 L8.21187347,12.0547965 L8.21187347,11.5996645 C7.43575658,12.1306519 6.57340448,12.4003597 5.59894661,12.4003597 C4.90906493,12.4003597 4.2795479,12.2823626 3.71901903,12.0547965 C3.15849017,11.8272305 2.67557299,11.5153808 2.27889103,11.110819 C1.88220906,10.7062572 1.5717623,10.2342684 1.35617428,9.69485267 C1.14058626,9.15543692 1.02848048,8.57387933 1.02848048,7.95017987 L1.02848048,7.95017987 L1.03587207,7.68546022 C1.06543843,7.16118115 1.18370386,6.66786343 1.39066836,6.20550708 C1.63212695,5.67451971 1.95119723,5.20253094 2.37374976,4.8063975 C2.78767876,4.40183569 3.27059594,4.08998597 3.82250128,3.85399158 C4.09845396,3.73599439 4.40027719,3.64328231 4.70210042,3.58428371 C4.98667662,3.52528511 5.28849985,3.5 5.59894661,3.5 Z M16.9819943,9.57685547 C16.7750298,10.065701 16.5163242,10.4871195 16.2058774,10.8495395 C15.9040542,11.2119594 15.5677369,11.5069524 15.1969255,11.7345184 C14.8261141,11.9620845 14.4380556,12.1306519 14.0241266,12.2402207 C13.6188211,12.3413612 13.1876451,12.4003597 12.756469,12.4003597 C12.1183285,12.4003597 11.5233055,12.2823626 10.9714002,12.0463682 C10.9282826,12.0295114 10.8937885,12.0126547 10.8506709,11.9957979 L10.8506709,11.9957979 L10.8506709,9.68642429 C10.8679179,9.71170941 10.8937885,9.73699452 10.9110355,9.75385126 C11.1438706,9.98141728 11.4198233,10.1668414 11.7388936,10.3016954 C12.0579638,10.4365493 12.3942811,10.5039763 12.7478455,10.5039763 C13.1876451,10.5039763 13.584327,10.4281209 13.9378914,10.2679819 C14.3000793,10.1078428 14.5846555,9.87184846 14.808867,9.57685547 L14.808867,9.57685547 Z" id="Combined-Shape" fill="#FFFFFF"></path>
    </g>
</svg>