<?xml version="1.0" encoding="UTF-8"?><!DOCTYPE svg PUBLIC "-//W3C//DTD SVG 1.1//EN" "http://www.w3.org/Graphics/SVG/1.1/DTD/svg11.dtd">
<svg xmlns="http://www.w3.org/2000/svg"><defs/><symbol id="arrow-left-top" viewBox="0 0 64 64">
    <!-- Generator: Sketch 50 (54983) - http://www.bohemiancoding.com/sketch -->
    <desc>Created with Sketch.</desc>


        <g id="arrow-left-top" transform="translate(32.000000, 32.000000) rotate(-102.000000) translate(-32.000000, -32.000000) " fill="#7A9BBE">
            <path d="M63.386,16.193 L63.388,16.191 C63.39,16.188 63.392,16.185 63.394,16.181 C63.566,15.986 63.692,15.751 63.793,15.503 C63.825,15.427 63.846,15.355 63.869,15.278 C63.927,15.087 63.963,14.889 63.975,14.682 C63.981,14.606 63.993,14.534 63.991,14.456 C63.991,14.416 64.001,14.38 63.999,14.341 C63.985,14.102 63.937,13.871 63.863,13.654 C63.857,13.631 63.841,13.613 63.833,13.59 C63.745,13.351 63.619,13.139 63.47,12.945 C63.449,12.918 63.442,12.882 63.42,12.855 L53.109,0.709 C52.32,-0.221 51.025,-0.239 50.215,0.672 C49.407,1.582 49.392,3.074 50.183,4.006 L55.741,10.555 C47.62,9.479 39.637,11.188 39.26,11.272 C14.614,15.739 -2.827,38.499 0.38,62.008 C0.539,63.172 1.408,64 2.399,64 C2.505,64 2.611,63.991 2.719,63.973 C3.835,63.77 4.597,62.564 4.423,61.277 C1.566,40.337 17.479,19.995 39.96,15.919 C40.063,15.895 48.311,14.125 56.077,15.345 L47.5,20.438 C46.495,21.036 46.102,22.458 46.619,23.615 C47.135,24.774 48.367,25.223 49.375,24.632 L62.895,16.604 C63.078,16.493 63.242,16.354 63.386,16.193 Z" id="Shape" fill="#7A9BBE"/>
        </g>

</symbol><symbol id="curve-arrow" viewBox="0 0 504 512">
    <!-- Generator: Sketch 50 (54983) - http://www.bohemiancoding.com/sketch -->
    <desc>Created with Sketch.</desc>
    
    <g id="Page-1" stroke="none" stroke-width="1" fill="none" fill-rule="evenodd">
        <g id="curve-arrow" transform="translate(-4.000000, 4.000000)" fill="#2196F3" fill-rule="nonzero">
            <path d="M371.552,5.284 C365.536,-0.732 354.912,-0.732 348.928,5.284 L303.68,50.564 C297.44,56.804 297.44,66.948 303.68,73.188 L336.96,106.468 C145.344,129.508 0,290.468 0,487.236 C0,496.068 7.168,503.236 16,503.236 L80,503.236 C88.832,503.236 96,496.068 96,487.236 C96,345.988 196.096,229.22 330.784,204.42 L303.648,231.556 C297.408,237.796 297.408,247.94 303.648,254.18 L348.896,299.46 C351.904,302.468 355.968,304.132 360.224,304.132 C364.48,304.132 368.544,302.436 371.552,299.46 L507.328,163.684 C513.568,157.444 513.568,147.3 507.328,141.06 L371.552,5.284 Z" id="Shape" transform="translate(256.004000, 252.004000) rotate(-90.000000) translate(-256.004000, -252.004000) "/>
        </g>
    </g>
</symbol><symbol id="woocommerce_logo_white" viewBox="0 0 998 810">
<g>
	<path fill-rule="evenodd" clip-rule="evenodd" fill="#9B5C8F" d="M160.7,331.2h199.1c12.6,0,22.8,10.2,22.8,22.8V430
		c0,12.6-10.2,22.8-22.8,22.8h-71.4l9.8,24l-43.1-24h-94.3c-12.6,0-22.8-10.2-22.8-22.8V354C137.9,341.5,148.1,331.2,160.7,331.2z"/>
	<path fill="#FFFFFF" d="M150.2,351.9c1.4-1.9,3.5-2.9,6.3-3.1c5.1-0.4,8,2,8.7,7.2c3.1,20.9,6.5,38.6,10.1,53.1l21.9-41.7
		c2-3.8,4.5-5.8,7.5-6c4.4-0.3,7.1,2.5,8.2,8.4c2.5,13.3,5.7,24.6,9.5,34.2c2.6-25.4,7-43.7,13.2-55c1.5-2.8,3.7-4.2,6.6-4.4
		c2.3-0.2,4.4,0.5,6.3,2c1.9,1.5,2.9,3.4,3.1,5.7c0.1,1.8-0.2,3.3-1,4.8c-3.9,7.2-7.1,19.3-9.7,36.1c-2.5,16.3-3.4,29-2.8,38.1
		c0.2,2.5-0.2,4.7-1.2,6.6c-1.2,2.2-3,3.4-5.3,3.6c-2.6,0.2-5.3-1-7.9-3.7c-9.3-9.5-16.7-23.7-22.1-42.6
		c-6.5,12.8-11.3,22.4-14.4,28.8c-5.9,11.3-10.9,17.1-15.1,17.4c-2.7,0.2-5-2.1-7-6.9c-5.1-13.1-10.6-38.4-16.5-75.9
		C148.3,356,148.8,353.7,150.2,351.9z"/>
	<path fill="#FFFFFF" d="M365.2,367.6c-3.6-6.3-8.9-10.1-16-11.6c-1.9-0.4-3.7-0.6-5.4-0.6c-9.6,0-17.4,5-23.5,15
		c-5.2,8.5-7.8,17.9-7.8,28.2c0,7.7,1.6,14.3,4.8,19.8c3.6,6.3,8.9,10.1,16,11.6c1.9,0.4,3.7,0.6,5.4,0.6c9.7,0,17.5-5,23.5-15
		c5.2-8.6,7.8-18,7.8-28.3C370,379.5,368.4,373,365.2,367.6L365.2,367.6z M352.6,395.3c-1.4,6.6-3.9,11.5-7.6,14.8
		c-2.9,2.6-5.6,3.7-8.1,3.2c-2.4-0.5-4.4-2.6-5.9-6.5c-1.2-3.1-1.8-6.2-1.8-9.1c0-2.5,0.2-5,0.7-7.3c0.9-4.1,2.6-8.1,5.3-11.9
		c3.3-4.9,6.8-6.9,10.4-6.2c2.4,0.5,4.4,2.6,5.9,6.5c1.2,3.1,1.8,6.2,1.8,9.1C353.3,390.5,353,393,352.6,395.3L352.6,395.3z"/>
	<path fill="#FFFFFF" d="M302.5,367.6c-3.6-6.3-9-10.1-16-11.6c-1.9-0.4-3.7-0.6-5.4-0.6c-9.6,0-17.4,5-23.5,15
		c-5.2,8.5-7.8,17.9-7.8,28.2c0,7.7,1.6,14.3,4.8,19.8c3.6,6.3,8.9,10.1,16,11.6c1.9,0.4,3.7,0.6,5.4,0.6c9.7,0,17.5-5,23.5-15
		c5.2-8.6,7.8-18,7.8-28.3C307.3,379.5,305.7,373,302.5,367.6L302.5,367.6z M289.9,395.3c-1.4,6.6-3.9,11.5-7.6,14.8
		c-2.9,2.6-5.6,3.7-8.1,3.2c-2.4-0.5-4.4-2.6-5.9-6.5c-1.2-3.1-1.8-6.2-1.8-9.1c0-2.5,0.2-5,0.7-7.3c0.9-4.1,2.6-8.1,5.3-11.9
		c3.3-4.9,6.8-6.9,10.4-6.2c2.4,0.5,4.4,2.6,5.9,6.5c1.2,3.1,1.8,6.2,1.8,9.1C290.6,390.5,290.4,393,289.9,395.3L289.9,395.3z"/>
	<g>
		<g>
			<path fill="#FFFFFF" d="M407.9,366.7c-6.7,6.6-10,15-10,25.2c0,10.9,3.3,19.8,9.9,26.5c6.6,6.7,15.2,10.1,25.9,10.1
				c3.1,0,6.6-0.5,10.4-1.6v-16.2c-3.5,1-6.5,1.5-9.1,1.5c-5.3,0-9.5-1.8-12.7-5.3c-3.2-3.6-4.8-8.4-4.8-14.5c0-5.7,1.6-10.4,4.7-14
				c3.2-3.7,7.1-5.5,11.9-5.5c3.1,0,6.4,0.5,10,1.5v-16.2c-3.3-0.9-7-1.3-10.9-1.3C423,356.8,414.6,360.1,407.9,366.7z M477.3,356.8
				c-9.2,0-16.4,3.1-21.6,9.2c-5.2,6.1-7.7,14.7-7.7,25.7c0,11.9,2.6,21,7.7,27.3c5.1,6.3,12.6,9.5,22.4,9.5
				c9.5,0,16.8-3.2,21.9-9.5c5.1-6.3,7.7-15.2,7.7-26.6c0-11.4-2.6-20.2-7.8-26.4C494.6,359.9,487.1,356.8,477.3,356.8z
				 M485.2,408.8c-1.8,2.8-4.5,4.2-7.9,4.2c-3.2,0-5.6-1.4-7.3-4.2c-1.7-2.8-2.5-8.4-2.5-16.9c0-13.1,3.3-19.6,10-19.6
				c7,0,10.6,6.6,10.6,19.9C488,400.4,487,406,485.2,408.8z M557.1,358.7l-3.6,15.3c-0.9,3.9-1.8,7.9-2.6,12l-2,10.6
				c-1.9-10.6-4.5-23.2-7.8-37.9h-23.2l-8.7,68.1h17.4l4.7-46.9l11.9,46.9h12.4L567,380l4.9,46.8h18.2l-9.2-68.1H557.1z
				 M640.4,358.7l-3.6,15.3c-0.9,3.9-1.8,7.9-2.6,12l-2,10.6c-1.9-10.6-4.5-23.2-7.8-37.9h-23.2l-8.7,68.1h17.4l4.7-46.9l11.9,46.9
				h12.4l11.3-46.8l4.9,46.8h18.2l-9.2-68.1H640.4z M697,399.9h16.3v-14.1H697v-12.5h18.8v-14.5h-37.2v68.1h37.3v-14.5H697V399.9z
				 M767.7,389.1c1.9-3.1,2.9-6.3,2.9-9.6c0-6.4-2.5-11.5-7.5-15.2c-5-3.7-11.9-5.6-20.5-5.6h-21.4v68.1h18.4v-31h0.3l14.9,31h19.4
				l-14.7-30.7C763,394.5,765.8,392.2,767.7,389.1z M739.5,388v-16.2c4.4,0.1,7.5,0.8,9.4,2.2c1.9,1.4,2.8,3.6,2.8,6.8
				C751.7,385.5,747.6,387.9,739.5,388z M781.4,366.7c-6.7,6.6-10,15-10,25.2c0,10.9,3.3,19.8,9.9,26.5c6.6,6.7,15.2,10.1,25.9,10.1
				c3.1,0,6.6-0.5,10.4-1.6v-16.2c-3.5,1-6.5,1.5-9.1,1.5c-5.3,0-9.5-1.8-12.7-5.3c-3.2-3.6-4.8-8.4-4.8-14.5c0-5.7,1.6-10.4,4.7-14
				c3.2-3.7,7.1-5.5,11.9-5.5c3.1,0,6.4,0.5,10,1.5v-16.2c-3.3-0.9-7-1.3-10.9-1.3C796.6,356.8,788.1,360.1,781.4,366.7z
				 M841.1,412.2v-12.4h16.3v-14.1h-16.3v-12.5H860v-14.5h-37.2v68.1h37.3v-14.5H841.1z"/>
		</g>
	</g>
</g>
</symbol><symbol id="zebra-thumbs-up" viewBox="0 0 209 328">
    <!-- Generator: Sketch 50 (54983) - http://www.bohemiancoding.com/sketch -->
    <title>zebra_2</title>
    <desc>Created with Sketch.</desc>
    
    <g id="Symbols" stroke="none" stroke-width="1" fill="none" fill-rule="evenodd">
        <g id="mascot" fill-rule="nonzero">
            <g id="zebra_2">
                <path d="M108.202,317.552 C72.151,317.552 41.362,319.685 41.362,322.316 C41.362,324.947 72.151,327.08 108.202,327.08 C144.254,327.08 171.915,324.947 171.915,322.316 C171.915,319.685 144.254,317.552 108.202,317.552 Z" id="Shape" fill="#000000" opacity="0.2"/>
                <path d="M21.815,209.73 C21.815,209.73 15.794,216.867 21.728,224.313 C21.728,224.313 54.462,242.692 82.251,226.945 L86.091,192.979 C86.092,192.979 60.876,221.188 21.815,209.73 Z" id="Shape" fill="#FFFFFF"/>
                <path d="M28.766,222.563 C28.06,216.227 25.135,211.917 25.135,211.917 L24.33,212.995 C27.847,221.103 25.479,226.113 25.479,226.113 C45.644,236.009 70.594,232.235 70.594,232.235 L73.972,217.825 C58.939,230.058 28.766,222.563 28.766,222.563 Z" id="Shape" fill="#DDE5F2"/>
                <path d="M40.063,221.326 C38.59,220.675 36.51,226.235 36.554,230.426 L41.5860003,231.892 C41.587,231.892 38.63,227.14 40.063,221.326 Z" id="Shape" fill="#44465D"/>
                <path d="M53.775,233.303 L60.992,233.779 C60.992,233.779 55.594,228.255 55.793,219.994 C53.612,219.554 52.466,227.667 53.775,233.303 Z" id="Shape" fill="#44465D"/>
                <path d="M57.045,234.269 C37.733,234.27 21.471,225.316 21.239,225.186 L21.069,225.09 L20.947,224.937 C14.576,216.942 20.986,209.164 21.052,209.086 L21.472,208.588 L22.097,208.771 C60.112,219.922 85.098,192.591 85.347,192.314 L86.838,193.646 C86.583,193.931 61.041,221.875 22.201,210.882 C21.056,212.53 18.028,217.894 22.388,223.533 C24.959,224.909 55.808,240.779 81.76,226.075 L82.746,227.815 C74.309,232.596 65.391,234.269 57.045,234.269 Z" id="Shape" fill="#27292E"/>
                <path d="M24.33,212.995 C24.008,212.329 22.218,211.315 22.214,210.732 C22.171,202.837 23.583,196.809 23.888,189.667 C20.212,189.523 17.603,193.51 15.82,196.214 C15.298,197.006 12.872,202.727 12.244,202.842 C9.387,203.368 5.889,202.956 5.889,202.956 C5.889,202.956 -4.029,217.699 7.369,229.142 C7.369,229.142 19.687,232.438 25.48,226.114 C26.629,224.86 26.302,220.965 26.176,219.497 C25.982,217.207 25.321,215.06 24.33,212.995 Z" id="Shape" fill="#41435A"/>
                <path d="M22.124,211.015 C21.755,208.998 22.846,206.021 23.012,203.724 C23.26,200.326 23.829,196.893 23.788,193.481 C23.768,191.815 23.026,190.277 21.658,192.18 C18.866,196.07 18.353,202.55 17.829,207.193 C13.6,206.394 11.762,203.547 11.762,203.547 L5.845,204.238 C8.132,210.895 19.936,215.427 19.936,215.427 C21.16,218.045 20.804,224.723 20.804,224.723 C18.113,228.019 8.221,228.499 8.221,228.499 L7.992,228.394 C10.514,230.614 14.391,230.866 17.57,230.433 C21.996,229.832 25.333,227.481 25.673,222.841 C25.909,219.582 25.305,216.434 24.173,213.396 C23.739,212.232 22.324,212.112 22.124,211.015 Z" id="Shape" fill="#373A4F"/>
                <path d="M22.51,211.818 C22.588,211.938 22.649,212.068 22.723,212.19 C22.895,212.215 23.063,212.245 23.237,212.269 L22.51,211.818 Z" id="Shape" fill="#27292E"/>
                <path d="M24.742,225.438 C24.699,225.484 24.649,225.524 24.604,225.569 C24.583,225.635 24.562,225.709 24.542,225.764 L24.742,225.438 Z" id="Shape" fill="#27292E"/>
                <path d="M24.189,210.733 L24.182,210.721 C24.026,210.482 23.767,210.313 23.461,210.281 C23.114,210.245 22.762,210.196 22.41,210.151 C22.346,210.326 22.29,210.505 22.22,210.675 C22.178,210.775 22.064,210.821 21.965,210.78 C21.888,210.747 21.843,210.667 21.845,210.589 C21.851,210.421 21.868,210.253 21.884,210.086 C21.256,210 20.626,209.907 20.001,209.815 C18.847,209.631 17.696,209.426 16.557,209.186 C15.418,208.94 14.294,208.649 13.194,208.303 C12.649,208.119 12.106,207.934 11.581,207.713 C11.06,207.484 10.54,207.252 10.076,206.938 C9.939,206.844 9.747,206.855 9.624,206.976 C9.485,207.114 9.483,207.338 9.621,207.477 C10.516,208.383 11.617,208.997 12.726,209.506 C13.841,210.017 14.994,210.408 16.153,210.755 C17.312,211.105 18.484,211.4 19.663,211.647 C20.677,211.868 21.689,212.038 22.724,212.189 C22.649,212.067 22.588,211.937 22.511,211.817 L23.239,212.268 C23.065,212.244 22.897,212.214 22.725,212.189 C23.924,214.152 24.75,216.331 25.07,218.602 C25.246,219.807 25.288,221.032 25.2,222.248 C25.157,222.855 25.083,223.461 24.972,224.057 C24.917,224.356 24.854,224.651 24.783,224.942 C24.731,225.153 24.668,225.372 24.606,225.567 C24.65,225.522 24.7,225.482 24.744,225.436 L24.545,225.762 C24.565,225.706 24.586,225.633 24.607,225.567 C24.149,226.035 23.651,226.464 23.106,226.838 C22.798,227.03 22.494,227.229 22.166,227.392 C21.849,227.573 21.505,227.71 21.168,227.859 C19.797,228.413 18.31,228.737 16.793,228.886 C15.276,229.043 13.727,229.023 12.186,228.901 C11.415,228.838 10.644,228.745 9.878,228.624 L8.735,228.422 C8.454,228.366 8.168,228.303 7.895,228.238 C7.956,228.304 8.019,228.369 8.079,228.435 L7.63,228.175 C7.713,228.196 7.807,228.217 7.896,228.238 C7.572,227.89 7.238,227.551 6.941,227.182 C6.587,226.744 6.222,226.314 5.917,225.843 C5.58,225.392 5.303,224.905 5.017,224.424 C4.749,223.935 4.491,223.437 4.272,222.924 C3.379,220.878 2.918,218.651 2.901,216.402 C2.863,214.151 3.254,211.886 3.92,209.707 C4.255,208.615 4.662,207.545 5.13,206.5 C5.369,205.98 5.613,205.463 5.884,204.961 C6.055,204.641 6.238,204.318 6.422,204.007 C6.209,203.989 5.997,203.972 5.776,203.949 L6.723,203.513 C6.623,203.665 6.523,203.837 6.422,204.006 C6.76,204.034 7.095,204.058 7.435,204.071 C7.983,204.101 8.533,204.104 9.083,204.106 C9.636,204.092 10.188,204.084 10.747,204.03 C11.302,204.005 11.868,203.899 12.429,203.824 C12.734,203.782 13.011,203.589 13.144,203.288 L13.166,203.238 C13.46,202.572 13.794,201.88 14.131,201.21 C14.471,200.536 14.824,199.869 15.192,199.212 C15.926,197.896 16.714,196.613 17.579,195.403 C18.444,194.198 19.387,193.046 20.452,192.118 C21.208,191.453 22.061,190.919 22.883,190.718 C22.903,190.35 22.917,189.98 22.937,189.613 L23.824,190.644 L23.823,190.644 C23.52,190.607 23.204,190.639 22.883,190.718 C22.809,192.097 22.733,193.478 22.679,194.86 L22.435,200.11 L22.156,205.351 L22.017,207.967 L21.951,209.265 C21.943,209.536 21.916,209.81 21.89,210.086 C22.067,210.109 22.241,210.128 22.417,210.15 C22.662,209.491 22.875,208.812 23.046,208.12 C23.255,207.253 23.425,206.38 23.573,205.507 C23.855,203.757 24.051,202 24.241,200.245 C24.424,198.489 24.563,196.731 24.682,194.972 C24.811,193.213 24.89,191.456 24.935,189.688 L24.937,189.63 C24.949,189.123 24.56,188.691 24.048,188.655 L24.047,188.655 C23.05,188.542 22.081,188.792 21.276,189.173 C20.463,189.558 19.767,190.063 19.14,190.608 C17.887,191.703 16.877,192.955 15.951,194.24 C15.03,195.531 14.208,196.871 13.444,198.238 C13.063,198.922 12.697,199.612 12.344,200.31 C12.075,200.845 11.819,201.38 11.567,201.929 C11.733,201.905 11.899,201.878 12.066,201.858 L11.33,202.444 C11.408,202.268 11.488,202.1 11.567,201.929 C11.245,201.977 10.921,202.023 10.586,202.037 C10.087,202.086 9.576,202.093 9.066,202.106 C8.555,202.104 8.042,202.102 7.529,202.073 C7.019,202.053 6.494,202.01 6.009,201.962 L5.977,201.958 C5.626,201.924 5.268,202.081 5.062,202.397 C4.697,202.958 4.411,203.473 4.116,204.023 C3.825,204.565 3.563,205.12 3.306,205.676 C2.804,206.795 2.368,207.944 2.008,209.118 C1.648,210.292 1.363,211.495 1.17,212.717 C0.972,213.937 0.886,215.18 0.9,216.426 C0.919,218.914 1.433,221.424 2.438,223.723 C2.683,224.298 2.973,224.856 3.274,225.405 C3.591,225.943 3.905,226.485 4.276,226.987 C4.619,227.51 5.019,227.986 5.411,228.469 C5.803,228.953 6.247,229.386 6.663,229.846 C6.771,229.965 6.913,230.055 7.081,230.098 L7.113,230.106 C7.549,230.218 7.937,230.299 8.348,230.383 C8.753,230.461 9.16,230.535 9.567,230.598 C10.38,230.727 11.199,230.827 12.021,230.893 C13.666,231.023 15.328,231.047 16.994,230.874 C18.656,230.71 20.328,230.353 21.925,229.709 C22.32,229.538 22.719,229.374 23.098,229.161 C23.486,228.967 23.854,228.73 24.223,228.498 C24.946,228.004 25.618,227.43 26.221,226.787 L26.229,226.779 C26.311,226.69 26.377,226.583 26.42,226.461 C26.556,226.076 26.639,225.769 26.726,225.425 C26.809,225.09 26.88,224.754 26.943,224.418 C27.066,223.746 27.149,223.068 27.198,222.391 C27.296,221.034 27.249,219.665 27.052,218.317 C26.668,215.617 25.661,213.014 24.189,210.733 Z" id="Shape" fill="#27292E"/>
                <path d="M21.846,210.59 C21.844,210.668 21.889,210.748 21.966,210.781 C22.065,210.822 22.179,210.775 22.221,210.676 C22.292,210.506 22.347,210.326 22.411,210.152 C22.235,210.13 22.061,210.111 21.884,210.088 C21.869,210.254 21.852,210.422 21.846,210.59 Z" id="Shape" fill="#27292E"/>
                <path d="M8.076,228.436 C8.016,228.37 7.953,228.305 7.892,228.239 C7.803,228.218 7.71,228.198 7.626,228.176 L8.076,228.436 Z" id="Shape" fill="#27292E"/>
                <path d="M5.771,203.949 C5.992,203.971 6.205,203.989 6.417,204.007 C6.518,203.838 6.618,203.666 6.718,203.514 L5.771,203.949 Z" id="Shape" fill="#27292E"/>
                <path d="M12.062,201.858 C11.895,201.879 11.729,201.905 11.563,201.929 C11.484,202.1 11.404,202.268 11.326,202.444 L12.062,201.858 Z" id="Shape" fill="#27292E"/>
                <path d="M23.817,190.645 L22.931,189.614 C22.911,189.981 22.896,190.351 22.877,190.719 C23.198,190.64 23.515,190.607 23.817,190.645 Z" id="Shape" fill="#27292E"/>
                <path d="M145.964,81.376 C145.1,65.167 131.484,62.357 131.484,62.357 C111.601,50.902 85.883,59.115 85.883,59.115 C77.454,61.06 76.806,72.082 76.806,72.082 C71.618,92.613 59.516,116.6 59.515,116.603 C59.206,117.215 66.663,126.989 67.446,128.358 C69.495,131.946 71.3,135.679 72.769,139.543 C75.37,146.382 82.36,162.371 86.047,168.736 C91.185,177.606 89.146,178.674 85.35,188.845 C81.771,198.438 77.911,207.587 75.098,217.599 C72.736,226.01 69.809,234.469 69.062,243.184 C68.512,249.595 66.962,262.305 69.919,268.487 C79.429,288.37 107.062,283.231 107.062,283.231 C109.872,293.821 115.275,313.706 115.275,313.706 C112.034,316.298 108.791,322.351 108.791,322.351 C133.645,329.699 144.235,321.486 144.235,321.486 C137.319,295.336 143.587,276.75 143.587,276.75 C146.397,263.566 141.858,252.111 141.858,252.111 C137.536,232.443 137.104,190.086 137.104,190.086 C133.43,163.07 146.83,87.645 146.83,87.645 L145.964,81.376 Z" id="Shape" fill="#FFFFFF"/>
                <path d="M101.847,283.685 C101.847,283.685 90.624,256.527 69.011,267.05 C69.011,267.05 69.936,298.169 76.16,312.087 C76.16,312.087 69.935,315.821 68.692,320.573 C68.692,320.573 88.719,328.38 102.073,319.894 C102.073,319.895 99.244,294.547 101.847,283.685 Z" id="Shape" fill="#FFFFFF"/>
                <path d="M92.129,286.249 C92.129,286.249 91.518,292.501 94.1,316.29 L99.81,314.251 C99.81,314.251 100.079,291.858 101.847,283.685 C101.847,283.685 89.479,283.257 85.4009984,281.626 C85.4,281.626 85.876,285.296 92.129,286.249 Z" id="Shape" fill="#DDE5F2"/>
                <path d="M70.888,6.985 C52.716,20.224 58.168,46.185 58.168,46.185 C65.695,55.271 80.493,62.799 80.493,62.799 C83.608,58.646 93.213,57.347 93.213,57.347 C79.715,39.434 76.081,15.552 76.081,15.552 C75.302,6.726 70.888,6.985 70.888,6.985 Z" id="Shape" fill="#FFFFFF"/>
                <path d="M80.233,6.726 C91.136,25.936 95.291,61.761 95.291,61.761 L102.818,62.54 C108.27,38.397 99.444,2.313 99.444,2.313 C84.906,-1.062 80.233,6.726 80.233,6.726 Z" id="Shape" fill="#4D5268"/>
                <path d="M128.946,30.291 L131.054,14.181 C123.074,6.202 99.444,2.313 99.444,2.313 C107.882,42.089 104.103,62.662 104.103,62.662 C116.901,56.037 124.579,60.253 124.579,60.253 L132.108,62.361 L141.093,43.829 L146.11,25.925 C143.098,20.957 137.528,15.386 137.528,15.386 L128.946,30.291 Z" id="Shape" fill="#52556D"/>
                <polygon id="Shape" fill="#4B5156" points="129.097 29.235 136.926 15.083 130.903 15.986"/>
                <path d="M143.021,69.199 L146.391,83.021 C147.063,93.481 142.676,118.434 142.676,118.434 C138.635,136.313 136.611,176.777 136.611,176.777 C149.98,160.931 158.093,145.077 162.799,130.325 C163.105,129.363 163.394,128.41 163.667,127.456 C175.37,87.368 162.244,56.042 162.244,56.042 C148.416,67.846 143.021,69.199 143.021,69.199 Z" id="Shape" fill="#52556D"/>
                <path d="M162.8,130.324 C163.106,129.362 163.395,128.409 163.668,127.455 L150.861,129.137 L162.8,130.324 Z" id="Shape" fill="#27292E"/>
                <path d="M168.164,98.41 C168.47,96.666 168.759,94.939 169.032,93.209 L156.225,96.258 L168.164,98.41 Z" id="Shape" fill="#27292E"/>
                <path d="M135.045,189.378 C118.597,201.999 127.268,221.124 127.268,221.124 L139.124,232.216 C135.682,238.208 127.268,244.839 127.268,244.839 C123.442,257.845 138.105,256.823 138.105,256.823 C165.9,243.946 168.96,225.077 168.96,225.077 C161.31,200.725 135.045,189.378 135.045,189.378 Z" id="Shape" fill="#FFFFFF"/>
                <path d="M128.083,222.091 L130.395,226.577 C130.395,226.577 133.657,235.005 130.666,242.346 L139.124,232.216 C139.124,232.216 133.249,224.946 128.083,222.091 Z" id="Shape" fill="#DDE5F2"/>
                <path d="M126.994,257.976 C126.994,257.976 129.848,263.956 134.606,266.675 C134.606,266.675 129.441,275.919 131.072,287.202 C131.072,287.202 131.208,310.311 134.47,316.157 L142.355,314.118 C142.355,314.118 140.179,294.134 141.267,288.833 L143.578,277.278 C143.578,277.278 146.026,266.538 144.259,262.189 L126.994,257.976 Z" id="Shape" fill="#DDE5F2"/>
                <path d="M137.103,190.085 C137.103,190.085 135.817,143.559 141.58,124.077 L147.068,88.681 C147.068,88.681 149.651,70.058 131.484,62.358 C131.484,62.358 120.134,52.556 104.104,62.662 C104.104,62.662 114.963,58.774 128.134,65.908 C128.134,65.908 135.268,71.67 135.543,88.682 C135.543,88.682 135.542,112.828 130.329,121.06 C130.329,121.06 120.725,157.828 124.567,190.48 L124.293,193.773 C124.293,193.773 125.392,192.674 128.409,193.224 C128.409,193.224 152.006,209.685 157.22,226.423 C157.22,226.423 146.243,246.729 131.152,254.411 C131.152,254.411 132.798,257.155 136.915,257.704 C136.915,257.704 159.573,251.168 168.961,225.077 C168.96,225.077 162.535,200.39 137.103,190.085 Z" id="Shape" fill="#DDE5F2"/>
                <path d="M77.29,22.199 L76.497,14.859 C76.497,14.859 73.125,-1.805 64.793,13.073 C64.793,13.073 71.34,6.527 72.133,16.644 C72.133,16.644 74.91,43.227 88.399,58.303 L92.368,57.708 L84.234,42.234 L77.29,22.199 Z" id="Shape" fill="#DDE5F2"/>
                <path d="M143.745,69.808 L145.964,81.376 C147.588,84.811 146.324,90.042 146.324,90.042 L142.555,115.632 L137.794,147.967 C136.404,157.29 136.61,176.776 136.61,176.776 L144.934,164.83 L144.934,156.299 C143.744,133.09 151.679,89.447 151.679,89.447 C152.671,78.933 149.497,73.379 149.497,73.379 C160.011,66.634 159.613,58.302 159.613,58.302 L143.745,69.808 Z" id="Shape" fill="#3F4256"/>
                <path d="M76.16,312.087 C72.264,314.032 68.692,320.573 68.692,320.573 C89.312,326.911 102.073,319.894 102.073,319.894 L100.14,311.116 C89.415,316.187 76.16,312.087 76.16,312.087 Z" id="Shape" fill="#44465D"/>
                <path d="M115.743,312.872 C115.743,312.872 109.832,317.787 108.79,322.351 C108.79,322.351 130.795,329.71 144.234,321.486 L142.071,312.677 C142.071,312.677 126.86,318.333 115.743,312.872 Z" id="Shape" fill="#44465D"/>
                <path d="M120.278,125.064 C120.278,125.064 131.354,126.603 140.584,122.91 L142.123,113.065 C142.123,113.065 135.97,121.68 120.278,125.064 Z" id="Shape" fill="#44465D"/>
                <path d="M125.193,141.964 C125.193,141.964 133.122,143.11 139.727,140.36 L140.829,133.029 C140.829,133.03 136.426,139.445 125.193,141.964 Z" id="Shape" fill="#44465D"/>
                <path d="M138.051,214.474 C139.969,216.441 147.989,207.833 151.353,200.443 L144.169,195.055 C144.169,195.055 145.199,205.058 138.051,214.474 Z" id="Shape" fill="#44465D"/>
                <path d="M152.307,219.802 C153.069,221.779 160.179,218.552 164.045,214.615 L160.733,208.565 C160.733,208.565 159.054,215.735 152.307,219.802 Z" id="Shape" fill="#44465D"/>
                <path d="M143.881,240.005 C142.184,241.274 147.217,247.245 152.052,249.9 L156.979,245.075 C156.979,245.074 149.622,245.397 143.881,240.005 Z" id="Shape" fill="#44465D"/>
                <path d="M100.143,294.335 L101.039,287.472 C101.039,287.472 95.974,292.243 87.31,292.931 C87.235,295.048 95.041,296.437 100.143,294.335 Z" id="Shape" fill="#44465D"/>
                <path d="M89.515,303.034 C89.44,305.151 95.683,305.758 100.784,303.657 L100.116,298.356 C100.115,298.356 98.177,302.346 89.515,303.034 Z" id="Shape" fill="#44465D"/>
                <path d="M140.446,295.259 L141.342,288.396 C141.342,288.396 136.278,293.166 127.614,293.854 C127.539,295.971 135.345,297.359 140.446,295.259 Z" id="Shape" fill="#44465D"/>
                <path d="M129.818,304.881 C129.743,306.997 135.987,307.605 141.087,305.503 L140.419,300.204 C140.419,300.204 138.48,304.192 129.818,304.881 Z" id="Shape" fill="#44465D"/>
                <path d="M109.651,60.354 C125.747,56.103 132.108,62.36 132.108,62.36 C139.684,52.219 146.11,25.924 146.11,25.924 L142.146,20.873 C135.161,50.939 109.651,60.354 109.651,60.354 Z" id="Shape" fill="#3F4256"/>
                <path d="M103.417,63.799 C103.377,63.799 103.336,63.797 103.295,63.792 L95.351,62.833 C94.89,62.777 94.527,62.411 94.477,61.948 C94.444,61.645 91.067,31.361 79.924,6.43 C79.739,6.017 79.855,5.532 80.206,5.246 C80.557,4.96 88.927,-1.717 99.199,0.85 C99.539,0.935 99.809,1.191 99.912,1.526 C100,1.811 108.475,29.878 104.665,60.886 C108.549,59.482 118.729,56.383 127.483,58.774 C128.015,58.92 128.33,59.469 128.184,60.003 C128.038,60.536 127.49,60.848 126.955,60.704 C117.934,58.242 106.834,62.183 104.353,63.142 C104.213,63.532 103.838,63.799 103.417,63.799 Z M96.371,60.941 L102.547,61.687 C106.316,33.081 99.322,6.751 98.16,2.661 C90.594,1.031 84.055,4.982 82.077,6.351 C92.089,29.153 95.762,56.022 96.371,60.941 Z" id="Shape" fill="#27292E"/>
                <path d="M136.509,177.698 C136.294,177.698 136.077,177.629 135.895,177.486 C135.459,177.146 135.382,176.518 135.722,176.083 C172.416,129.053 170.839,87.973 163.055,61.792 C155.722,37.133 141.668,20.672 137.969,16.641 L129.869,30.952 C129.632,31.37 129.134,31.563 128.677,31.406 C128.222,31.251 127.942,30.794 128.009,30.318 L130.278,14.437 C122.626,6.816 99.035,2.846 98.794,2.807 C98.249,2.717 97.88,2.202 97.97,1.657 C98.06,1.113 98.57,0.743 99.12,0.833 C100.145,1.002 124.328,5.077 132.07,13.414 C132.276,13.635 132.37,13.937 132.328,14.236 L130.739,25.357 L136.896,14.478 C137.049,14.207 137.321,14.022 137.63,13.98 C137.938,13.937 138.25,14.042 138.471,14.262 C138.649,14.439 156.337,32.266 164.947,61.137 C172.893,87.786 174.548,129.575 137.299,177.314 C137.101,177.566 136.807,177.698 136.509,177.698 Z" id="Shape" fill="#27292E"/>
                <path d="M131.336,17.141 C130.862,17.141 130.441,16.803 130.354,16.32 C130.254,15.777 130.615,15.256 131.159,15.157 L137.588,13.987 C138.132,13.891 138.651,14.248 138.75,14.792 C138.85,15.335 138.489,15.856 137.945,15.955 L131.516,17.125 C131.455,17.135 131.396,17.141 131.336,17.141 Z" id="Shape" fill="#27292E"/>
                <path d="M181.622,236.61 C181.622,236.61 181.316,236.534 180.729,236.45 C180.139,236.365 179.262,236.286 178.092,236.403 C176.943,236.527 175.414,236.883 173.911,238.026 C173.174,238.596 172.488,239.376 171.995,240.284 C171.505,241.19 171.191,242.194 171.016,243.212 C170.679,245.251 170.828,247.337 171.159,249.436 C171.515,251.576 172.023,253.559 172.421,255.684 C172.827,257.788 173.179,259.941 173.264,262.062 C173.353,264.182 173.146,266.259 172.498,268.167 C171.863,270.079 170.784,271.827 169.426,273.384 C169.083,273.784 168.742,274.13 168.397,274.488 L167.783,275.077 C167.637,275.223 167.429,275.388 167.259,275.541 C166.529,276.155 165.729,276.687 164.891,277.136 C163.214,278.038 161.398,278.613 159.633,278.952 C157.864,279.29 156.139,279.401 154.559,279.335 C151.385,279.22 148.836,278.459 147.2,277.759 C146.363,277.411 145.771,277.066 145.408,276.872 C144.943,276.588 144.695,276.436 144.695,276.436 C144.69,276.432 144.67,276.42 144.665,276.416 C144.494,276.314 144.314,276.242 144.133,276.186 L143.111,281.295 C143.677,281.6 144.392,281.974 145.299,282.336 C147.415,283.209 150.572,284.092 154.414,284.182 C156.33,284.237 158.414,284.078 160.579,283.636 C162.739,283.174 164.988,282.413 167.144,281.194 C168.219,280.584 169.267,279.857 170.242,279.001 C170.486,278.774 170.718,278.581 170.971,278.323 L171.573,277.72 C172.011,277.254 172.46,276.771 172.853,276.289 C174.472,274.354 175.854,272.031 176.632,269.486 C177.436,266.945 177.574,264.285 177.4,261.83 C177.224,259.36 176.762,257.05 176.276,254.873 C175.802,252.71 175.204,250.604 174.857,248.795 C174.507,246.949 174.368,245.202 174.568,243.774 C174.77,242.335 175.312,241.34 176.066,240.735 C176.82,240.115 177.785,239.813 178.628,239.604 C179.476,239.395 180.211,239.307 180.713,239.216 C181.22,239.156 181.497,239.104 181.497,239.104 L181.554,239.094 C182.028,239.005 182.43,238.649 182.554,238.151 C182.719,237.47 182.304,236.779 181.622,236.61 Z" id="Shape" fill="#FFFFFF"/>
                <path d="M175.218,256.481 C176.105,259.76 179.295,273.676 165.734,279.704 C152.173,285.732 143.487,279.083 143.487,279.083 L142.777,281.831 C150.931,286.884 162.898,283.958 162.898,283.958 C183.196,276.425 177.256,256.394 177.256,256.394 C175.306,249.48 175.129,243.187 175.129,243.187 C176.104,239.109 180.093,240.173 180.093,240.173 L179.739,239.198 C168.659,239.375 175.218,256.481 175.218,256.481 Z" id="Shape" fill="#DDE5F2"/>
                <path d="M149.152,278.254 L149.116,278.275 C149.157,278.353 150.085,280.232 147.679,283.147 L149.993,285.055 C152.083,282.521 152.421,280.326 152.29,278.831 L149.152,278.254 Z" id="Shape" fill="#44465D"/>
                <path d="M163.06,284.575 L160.14,283.884 C160.935,280.53 159.575,278.988 159.516,278.924 L161.664,276.83 C161.771,276.937 164.26,279.51 163.06,284.575 Z" id="Shape" fill="#44465D"/>
                <path d="M171.098,278.437 C169.994,275.444 168.164,275.053 168.147,275.05 L168.575,272.081 C168.721,272.102 172.162,272.649 173.913,277.399 L171.098,278.437 Z" id="Shape" fill="#44465D"/>
                <path d="M176.802,268.725 C174.323,266.722 172.573,267.316 172.498,267.343 L171.915,264.401 C172.052,264.345 174.749,263.21 178.686,266.391 L176.802,268.725 Z" id="Shape" fill="#44465D"/>
                <path d="M172.42,256.964 L171.029,254.283 C171.132,254.178 172.231,252.117 177.102,253.504 L176.92,256.555 C173.859,255.681 172.477,256.91 172.42,256.964 Z" id="Shape" fill="#44465D"/>
                <path d="M170.877,246.15 L169.807,243.905 C169.907,243.8 171.214,241.496 175.983,242.962 L175.1,245.829 C172.21,244.94 170.929,246.101 170.877,246.15 Z" id="Shape" fill="#44465D"/>
                <path d="M181.983,235.154 C181.946,235.144 181.586,235.057 180.942,234.965 C180.376,234.884 179.822,234.844 179.249,234.844 C178.823,234.844 178.385,234.867 177.943,234.91 C176.048,235.115 174.436,235.743 173.004,236.832 C172.053,237.568 171.252,238.512 170.678,239.568 C170.138,240.568 169.754,241.707 169.538,242.957 C169.218,244.899 169.262,247.029 169.678,249.668 C169.888,250.932 170.148,252.136 170.399,253.3 C170.586,254.166 170.779,255.062 170.947,255.959 C171.304,257.811 171.679,259.982 171.765,262.121 C171.853,264.212 171.621,266.083 171.077,267.684 C170.534,269.321 169.599,270.903 168.296,272.397 C168.017,272.723 167.741,273.007 167.449,273.309 L167.338,273.425 L166.744,273.993 C166.657,274.08 166.57,274.152 166.484,274.225 C166.406,274.291 166.328,274.358 166.255,274.423 C165.663,274.92 164.952,275.398 164.18,275.812 C162.769,276.572 161.143,277.132 159.348,277.478 C158.049,277.726 156.732,277.852 155.435,277.852 C155.159,277.852 154.887,277.846 154.62,277.834 C151.36,277.716 148.941,276.871 147.788,276.378 C147.155,276.114 146.681,275.857 146.335,275.667 L146.155,275.57 L145.532,275.189 L145.519,275.178 L145.429,275.125 C145.173,274.973 144.895,274.851 144.576,274.752 L142.986,274.256 L142.659,275.89 L141.637,280.999 L141.419,282.088 L142.397,282.614 C143.062,282.971 143.806,283.353 144.739,283.726 C146.755,284.558 150.079,285.579 154.376,285.679 C154.623,285.686 154.882,285.69 155.142,285.69 C157.042,285.69 158.972,285.493 160.876,285.103 C163.437,284.555 165.789,283.679 167.88,282.497 C169.099,281.806 170.225,281.008 171.23,280.125 L171.478,279.899 C171.662,279.734 171.845,279.568 172.039,279.371 L172.632,278.777 C173.087,278.295 173.577,277.768 174.012,277.236 C175.88,275.005 177.285,272.471 178.065,269.923 C178.829,267.508 179.109,264.743 178.894,261.722 C178.71,259.14 178.23,256.746 177.738,254.544 C177.528,253.584 177.294,252.638 177.068,251.724 C176.784,250.576 176.516,249.49 176.329,248.511 C175.981,246.676 175.888,245.151 176.052,243.98 C176.147,243.305 176.389,242.396 177.004,241.902 C177.547,241.457 178.31,241.226 178.987,241.058 C179.535,240.923 180.034,240.843 180.473,240.774 C180.64,240.748 180.792,240.723 180.93,240.699 C181.477,240.634 181.775,240.576 181.775,240.576 L181.806,240.57 C182.89,240.367 183.745,239.56 184.006,238.511 C184.374,237.028 183.466,235.521 181.983,235.154 Z M182.55,238.151 C182.426,238.649 182.024,239.005 181.55,239.094 L181.493,239.104 C181.493,239.104 181.216,239.157 180.709,239.216 C180.207,239.307 179.472,239.395 178.624,239.604 C177.781,239.813 176.816,240.115 176.062,240.735 C175.308,241.34 174.766,242.335 174.564,243.774 C174.364,245.203 174.503,246.95 174.853,248.795 C175.2,250.605 175.798,252.71 176.272,254.873 C176.758,257.05 177.22,259.36 177.396,261.83 C177.571,264.285 177.432,266.945 176.628,269.486 C175.85,272.031 174.468,274.354 172.849,276.289 C172.455,276.77 172.007,277.254 171.569,277.72 L170.967,278.323 C170.714,278.581 170.483,278.774 170.238,279.001 C169.263,279.857 168.216,280.584 167.14,281.194 C164.984,282.414 162.735,283.174 160.575,283.636 C158.682,284.023 156.851,284.193 155.14,284.193 C154.894,284.193 154.651,284.189 154.41,284.182 C150.568,284.092 147.411,283.209 145.295,282.336 C144.389,281.974 143.674,281.6 143.107,281.295 L144.129,276.186 C144.311,276.243 144.49,276.315 144.661,276.416 C144.666,276.42 144.686,276.432 144.691,276.436 C144.691,276.436 144.939,276.587 145.404,276.872 C145.767,277.065 146.359,277.411 147.196,277.759 C148.833,278.459 151.382,279.22 154.555,279.335 C154.843,279.347 155.136,279.354 155.433,279.354 C156.765,279.354 158.183,279.229 159.629,278.953 C161.394,278.613 163.21,278.039 164.887,277.137 C165.725,276.688 166.525,276.157 167.255,275.542 C167.426,275.389 167.633,275.224 167.779,275.078 L168.393,274.489 C168.739,274.131 169.08,273.785 169.422,273.385 C170.78,271.828 171.86,270.08 172.494,268.168 C173.141,266.26 173.348,264.183 173.26,262.063 C173.175,259.942 172.823,257.789 172.417,255.685 C172.02,253.56 171.512,251.577 171.155,249.437 C170.825,247.338 170.676,245.252 171.012,243.213 C171.188,242.195 171.501,241.192 171.991,240.285 C172.484,239.377 173.17,238.597 173.907,238.027 C175.41,236.884 176.938,236.528 178.088,236.404 C178.512,236.362 178.897,236.344 179.244,236.344 C179.855,236.344 180.348,236.397 180.724,236.45 C181.311,236.534 181.617,236.61 181.617,236.61 C182.304,236.779 182.719,237.47 182.55,238.151 Z" id="Shape" fill="#27292E"/>
                <g id="Group" transform="translate(179.000000, 229.000000)">
                    <path d="M8.532,1.752 C1.996,3.52 0.259,8.514 1.448,11.152 C2.663,14.07 5.529,14.461 10.011,13.292 C14.003,10.702 27.065,11.501 27.065,11.501 C27.065,11.501 15.902,-1.254 8.532,1.752 Z" id="Shape" fill="#44465D"/>
                    <path d="M6.011,14.905 C3.302,14.905 1.456,13.772 0.526,11.537 C-0.125,10.093 -0.023,8.161 0.812,6.395 C1.536,4.864 3.459,2.106 8.213,0.802 C9.064,0.464 9.991,0.292 10.972,0.292 C18.499,0.292 27.442,10.411 27.819,10.842 L29.396,12.644 L27.005,12.498 C26.985,12.497 25.1,12.384 22.591,12.384 C16.566,12.384 12.292,13.004 10.556,14.13 L10.42,14.218 L10.264,14.259 C8.598,14.694 7.206,14.905 6.011,14.905 Z M10.972,2.293 C10.23,2.293 9.535,2.423 8.91,2.678 L8.793,2.717 C4.772,3.805 3.199,6.025 2.619,7.25 C2.032,8.493 1.934,9.799 2.36,10.741 C3.313,13.029 5.426,13.429 9.612,12.362 C11.781,11.049 16.145,10.384 22.591,10.384 C23.343,10.384 24.036,10.394 24.643,10.407 C21.795,7.573 15.839,2.293 10.972,2.293 Z" id="Shape" fill="#27292E"/>
                </g>
                <path d="M191.84,232.368 C183.413,232.175 182.313,238.202 182.313,238.202 C181.858,241.703 185.488,240.082 185.488,240.082 C190.674,237.359 200.266,237.294 200.266,237.294 C195.988,235.674 187.757,235.415 187.757,235.415 C188.664,233.794 191.84,232.368 191.84,232.368 Z" id="Shape" fill="#9193A7" opacity="0.3"/>
                <path d="M137.315,191.255 C136.835,191.255 136.411,190.908 136.33,190.419 C133.04,170.684 138.372,136.349 142.266,111.278 C144.223,98.673 145.77,88.717 145.422,85.392 C144.489,76.47 142.553,70.928 142.146,69.835 C141.125,68.912 134.937,63.649 123.334,60.46 C122.801,60.314 122.488,59.763 122.635,59.231 C122.781,58.698 123.338,58.384 123.864,58.532 C137.093,62.168 143.434,68.289 143.698,68.548 C143.795,68.644 143.872,68.758 143.924,68.885 C144.022,69.127 146.339,74.922 147.411,85.185 C147.786,88.768 146.3,98.339 144.242,111.586 C140.37,136.522 135.066,170.672 138.304,190.091 C138.395,190.635 138.027,191.151 137.482,191.241 C137.425,191.251 137.37,191.255 137.315,191.255 Z" id="Shape" fill="#27292E"/>
                <path d="M59.838,116.574 C59.669,116.574 59.496,116.531 59.339,116.44 C58.86,116.164 58.697,115.552 58.973,115.074 C64.529,105.452 65.656,102.118 69,92.223 C70.522,87.716 72.604,81.556 75.795,72.794 C75.791,71.057 76.289,59.831 89.634,56.991 C91.214,56.761 91.623,56.628 91.921,56.531 C92.424,56.367 92.721,56.292 94.481,56.216 C95.037,56.212 95.5,56.62 95.523,57.172 C95.546,57.724 95.119,58.191 94.567,58.214 C93.005,58.282 92.839,58.336 92.538,58.434 C92.171,58.553 91.669,58.717 89.984,58.96 C77.304,61.661 77.769,72.45 77.796,72.908 C77.803,73.044 77.783,73.179 77.737,73.307 C74.518,82.139 72.424,88.338 70.894,92.865 C67.503,102.901 66.36,106.282 60.705,116.076 C60.52,116.395 60.184,116.574 59.838,116.574 Z" id="Shape" fill="#27292E"/>
                <path d="M106.9,282.552 L106.846,282.555 C106.846,282.555 106.494,282.572 105.879,282.603 C105.571,282.618 105.198,282.636 104.77,282.658 C104.341,282.671 103.859,282.723 103.33,282.709 C102.274,282.692 101.039,282.772 99.719,282.691 C99.059,282.666 98.375,282.639 97.681,282.613 C96.99,282.558 96.285,282.502 95.582,282.446 C94.876,282.401 94.177,282.312 93.489,282.216 C92.801,282.116 92.118,282.054 91.467,281.939 C90.815,281.827 90.184,281.718 89.586,281.615 C88.983,281.518 88.442,281.369 87.924,281.269 C87.409,281.152 86.937,281.075 86.516,280.953 C86.093,280.841 85.725,280.743 85.422,280.662 C84.815,280.502 84.468,280.41 84.468,280.41 C84.282,280.361 84.083,280.454 84.007,280.636 C83.924,280.835 84.018,281.064 84.216,281.147 C84.216,281.147 84.547,281.286 85.126,281.528 C85.416,281.649 85.768,281.796 86.171,281.965 C86.575,282.128 87.066,282.264 87.584,282.439 C88.106,282.598 88.674,282.816 89.28,282.95 C89.886,283.098 90.526,283.255 91.187,283.417 C91.848,283.587 92.544,283.68 93.248,283.813 C93.951,283.944 94.667,284.067 95.389,284.146 C96.11,284.236 96.83,284.326 97.539,284.415 C98.252,284.467 98.954,284.519 99.633,284.567 C100.313,284.626 100.971,284.648 101.596,284.652 C102.22,284.664 102.811,284.674 103.357,284.684 C103.902,284.703 104.402,284.653 104.844,284.643 C105.287,284.624 105.674,284.608 105.991,284.595 C106.628,284.568 106.991,284.552 106.991,284.552 L106.998,284.552 C107.55,284.525 107.975,284.056 107.948,283.504 C107.921,282.949 107.451,282.524 106.9,282.552 Z" id="Shape" fill="#27292E"/>
                <path d="M69.083,270.433 C68.6,270.433 68.175,270.082 68.097,269.59 C62.885,236.777 79.967,196.597 87.553,180.844 C87.693,180.555 87.798,180.336 87.866,180.193 C87.89,180.087 87.932,179.982 87.994,179.883 C88.277,179.436 88.899,179.232 89.364,179.488 C90.201,179.952 89.883,180.614 89.354,181.712 C81.849,197.295 64.948,237.022 70.071,269.275 C70.157,269.821 69.785,270.334 69.24,270.42 C69.188,270.429 69.135,270.433 69.083,270.433 Z" id="Shape" fill="#27292E"/>
                <path d="M86.156,324.493 C76.704,324.493 68.532,321.733 68.005,321.552 C67.507,321.38 67.227,320.852 67.366,320.344 C68.194,317.309 73.259,313.152 75.063,311.747 C67.029,286.434 68.075,269.533 68.087,269.364 C68.125,268.813 68.61,268.389 69.152,268.435 C69.703,268.472 70.119,268.95 70.082,269.5 C70.071,269.667 69.042,286.518 77.182,311.807 C77.313,312.214 77.17,312.66 76.828,312.915 C75.17,314.152 71.058,317.551 69.682,319.979 C73.786,321.191 89.347,325.157 100.659,319.463 C100.082,315.846 97.774,299.413 100.601,283.548 C100.698,283.004 101.218,282.637 101.761,282.739 C102.305,282.836 102.667,283.355 102.57,283.899 C99.448,301.417 102.715,319.65 102.748,319.833 C102.826,320.258 102.622,320.685 102.242,320.892 C97.236,323.613 91.492,324.493 86.156,324.493 Z" id="Shape" fill="#27292E"/>
                <path d="M128.083,326.223 C117.5,326.223 107.884,323.221 107.793,323.143 C107.504,322.891 107.384,322.496 107.484,322.125 C108.306,319.11 112.882,314.366 114.424,312.832 C113.747,310.736 113.061,308.66 112.384,306.613 C109.618,298.253 107.006,290.356 105.876,283.674 C105.784,283.129 106.151,282.613 106.695,282.521 C107.245,282.436 107.756,282.796 107.848,283.34 C108.952,289.873 111.54,297.699 114.282,305.986 C115.024,308.229 115.777,310.507 116.517,312.806 C116.633,313.169 116.534,313.567 116.259,313.832 C114.774,315.267 111.075,319.149 109.782,321.726 C114.18,322.906 131.546,326.988 143.048,321.279 C141.982,317.225 137.53,298.465 141.5,281.527 C141.509,281.488 141.521,281.448 141.535,281.411 C141.573,281.307 145.269,270.953 142.16,256.247 C142.046,255.707 142.391,255.176 142.931,255.061 C143.477,254.947 144.002,255.292 144.117,255.832 C147.262,270.706 143.782,281.061 143.433,282.04 C139.124,300.519 145.122,321.304 145.183,321.512 C145.316,321.964 145.116,322.448 144.702,322.673 C139.78,325.349 133.79,326.223 128.083,326.223 Z" id="Shape" fill="#27292E"/>
                <path d="M168.578,225.044 C168.551,225.139 168.513,225.24 168.484,225.336 C168.526,225.437 168.565,225.538 168.607,225.639 L168.578,225.044 Z" id="Shape" fill="#27292E"/>
                <path d="M137.018,256.038 C136.948,256.026 136.868,256.01 136.792,255.996 C136.715,256.022 136.638,256.048 136.562,256.075 L137.018,256.038 Z" id="Shape" fill="#27292E"/>
                <path d="M127.907,245.698 C128.009,245.635 128.097,245.567 128.195,245.503 C128.226,245.41 128.253,245.316 128.285,245.224 L127.907,245.698 Z" id="Shape" fill="#27292E"/>
                <path d="M169.293,221.9 C168.861,220.898 168.42,219.899 167.923,218.927 C167.458,217.938 166.914,216.991 166.396,216.031 C165.844,215.09 165.3,214.141 164.7,213.23 C162.324,209.566 159.551,206.174 156.496,203.069 C155.724,202.301 154.951,201.534 154.14,200.808 C153.339,200.072 152.516,199.359 151.68,198.664 C150.009,197.271 148.28,195.951 146.493,194.713 C144.709,193.473 142.871,192.312 140.983,191.233 C140.043,190.69 139.083,190.176 138.114,189.68 C137.146,189.18 136.131,188.763 134.96,188.696 C134.81,188.688 134.655,188.743 134.542,188.859 C134.337,189.073 134.344,189.413 134.557,189.618 L134.572,189.632 C135.373,190.403 136.283,190.932 137.22,191.412 C138.153,191.904 139.077,192.414 139.986,192.954 C141.807,194.025 143.582,195.18 145.302,196.407 C148.748,198.857 151.955,201.628 154.925,204.62 C157.884,207.625 160.565,210.899 162.857,214.43 C163.439,215.306 163.981,216.208 164.522,217.109 C165.034,218.028 165.572,218.933 166.03,219.88 C166.523,220.81 166.96,221.767 167.389,222.727 C167.793,223.58 168.126,224.463 168.486,225.335 C168.514,225.239 168.552,225.138 168.579,225.043 L168.58,225.043 L168.609,225.638 C168.567,225.537 168.528,225.436 168.486,225.335 C168.255,226.113 167.966,226.935 167.655,227.721 C167.3,228.614 166.913,229.497 166.499,230.368 C165.669,232.108 164.724,233.798 163.687,235.428 C161.611,238.686 159.159,241.709 156.37,244.381 C155.683,245.062 154.951,245.693 154.229,246.334 C153.479,246.942 152.75,247.577 151.965,248.143 C151.202,248.735 150.405,249.282 149.606,249.824 C148.803,250.361 147.978,250.866 147.15,251.362 C146.305,251.833 145.475,252.329 144.603,252.75 C143.748,253.201 142.871,253.609 141.985,253.998 C141.112,254.416 140.197,254.738 139.302,255.107 C138.474,255.426 137.63,255.702 136.793,255.996 C136.868,256.01 136.948,256.026 137.019,256.038 L136.563,256.075 C136.639,256.048 136.716,256.022 136.793,255.996 C136.534,255.947 136.26,255.891 135.994,255.825 C135.646,255.74 135.299,255.647 134.955,255.543 C134.267,255.335 133.592,255.091 132.94,254.806 C131.644,254.234 130.416,253.508 129.472,252.556 C129.24,252.317 129.012,252.073 128.823,251.808 C128.617,251.551 128.453,251.272 128.302,250.989 C128.146,250.707 128.037,250.407 127.924,250.108 C127.843,249.798 127.753,249.492 127.719,249.17 C127.659,248.855 127.666,248.524 127.659,248.199 C127.676,247.869 127.688,247.54 127.754,247.207 C127.831,246.636 128.006,246.068 128.196,245.504 C128.098,245.568 128.009,245.636 127.909,245.699 L127.908,245.699 L128.286,245.224 C128.254,245.317 128.227,245.411 128.196,245.503 C128.937,245.017 129.624,244.512 130.309,243.981 C131.081,243.386 131.829,242.759 132.547,242.098 C133.985,240.782 135.368,239.391 136.601,237.861 C137.845,236.341 138.948,234.691 139.858,232.926 C140.066,232.474 140.296,232.033 140.462,231.562 C140.646,231.1 140.8,230.624 140.934,230.144 C141.187,229.178 141.342,228.183 141.322,227.186 C141.32,227.062 141.249,226.943 141.129,226.886 C140.959,226.805 140.756,226.877 140.675,227.047 L140.666,227.067 C140.459,227.503 140.305,227.939 140.099,228.359 C139.925,228.788 139.703,229.197 139.516,229.613 C139.1,230.433 138.666,231.237 138.203,232.025 C137.281,233.609 136.165,235.084 134.964,236.49 C133.744,237.882 132.457,239.227 131.075,240.478 C130.381,241.099 129.679,241.715 128.968,242.317 C128.257,242.91 127.509,243.501 126.796,244.038 L126.77,244.056 C126.613,244.163 126.487,244.321 126.418,244.514 C126.147,245.283 125.896,246.066 125.778,246.9 C125.701,247.311 125.678,247.737 125.661,248.162 C125.665,248.589 125.664,249.021 125.739,249.449 C125.789,249.88 125.904,250.301 126.021,250.72 C126.168,251.13 126.323,251.538 126.532,251.92 C126.735,252.302 126.961,252.675 127.225,253.01 C127.476,253.358 127.765,253.67 128.059,253.971 C129.252,255.167 130.682,255.993 132.14,256.639 C132.872,256.959 133.62,257.23 134.378,257.459 C134.757,257.574 135.14,257.677 135.525,257.771 C135.917,257.866 136.286,257.946 136.719,258.017 L136.738,258.021 C136.88,258.043 137.03,258.033 137.176,257.981 C138.121,257.645 139.076,257.339 140.013,256.978 C140.941,256.596 141.888,256.261 142.795,255.829 C143.715,255.425 144.625,255.001 145.514,254.532 C146.419,254.094 147.283,253.58 148.16,253.09 C149.022,252.575 149.88,252.049 150.715,251.49 C151.548,250.926 152.377,250.356 153.172,249.74 C153.987,249.151 154.748,248.491 155.527,247.857 C156.28,247.189 157.041,246.532 157.756,245.824 C160.66,243.041 163.213,239.895 165.373,236.505 C166.452,234.808 167.436,233.049 168.303,231.232 C168.736,230.322 169.14,229.399 169.514,228.46 C169.886,227.51 170.222,226.587 170.514,225.548 C170.567,225.359 170.562,225.148 170.485,224.951 C170.085,223.935 169.737,222.897 169.293,221.9 Z" id="Shape" fill="#27292E"/>
                <path d="M138.104,229.471 C137.563,228.922 136.926,228.282 136.238,227.611 C135.518,226.983 134.751,226.313 133.983,225.644 C133.207,224.985 132.455,224.298 131.705,223.708 C130.951,223.122 130.258,222.565 129.644,222.11 C128.427,221.191 127.561,220.658 127.561,220.658 L127.551,220.652 C127.383,220.548 127.16,220.567 127.011,220.71 C126.834,220.88 126.828,221.161 126.998,221.338 C126.998,221.338 127.706,222.075 128.785,223.136 C129.321,223.67 129.97,224.266 130.652,224.916 C131.359,225.54 132.061,226.26 132.789,226.952 C133.513,227.647 134.237,228.342 134.916,228.993 C135.556,229.67 136.152,230.301 136.664,230.843 C137.698,231.913 138.387,232.627 138.387,232.627 L138.464,232.706 L138.467,232.709 C138.851,233.105 139.484,233.113 139.879,232.729 C140.274,232.345 140.283,231.712 139.899,231.317 C139.899,231.316 139.182,230.578 138.104,229.471 Z" id="Shape" fill="#27292E"/>
                <path d="M79.784,63.293 C79.64,63.293 79.494,63.262 79.355,63.196 C63.126,55.488 57.91,47.351 57.696,47.008 C57.645,46.926 57.605,46.836 57.58,46.742 C52.472,28.111 63.591,12.191 64.066,11.522 C67.051,7.13 69.685,5.295 72.113,5.93 C76.685,7.126 77.67,17.11 77.767,18.244 C80.142,32.844 86.988,44.899 91.079,52.102 C92.139,53.969 92.976,55.443 93.516,56.577 C93.753,57.076 93.541,57.672 93.043,57.91 C92.544,58.146 91.947,57.936 91.71,57.437 C91.202,56.369 90.38,54.922 89.34,53.09 C85.183,45.771 78.227,33.52 75.784,18.491 C75.451,14.674 74.034,8.5 71.606,7.866 C70.167,7.484 68.068,9.193 65.708,12.665 C65.585,12.838 54.721,28.426 59.466,46.06 C60.146,47.047 65.583,54.441 80.213,61.39 C80.712,61.627 80.924,62.223 80.687,62.723 C80.516,63.083 80.158,63.293 79.784,63.293 Z" id="Shape" fill="#27292E"/>
                <path d="M148.528,18.876 C145.616,36.44 133.631,59.203 131.098,64.272 L142.395,70.055 C158.486,62.92 169.263,45.519 169.263,45.519 C174.187,28.222 162.714,13.09 162.714,13.09 C152.544,-0.942 148.528,18.876 148.528,18.876 Z" id="Shape" fill="#DDE5F2"/>
                <path d="M153.43,13.986 C153.622,13.095 153.724,12.58 153.724,12.58 C153.724,12.58 151.554,18.453 153.43,13.986 Z" id="Shape" fill="#FFFFFF"/>
                <path d="M149.232,16.229 L147.548,23.386 C146.146,36.717 132.108,62.361 132.108,62.361 C144.551,52.495 151.921,20.983 153.429,13.986 C151.553,18.453 153.723,12.58 153.723,12.58 C153.723,12.58 153.621,13.095 153.429,13.986 C153.519,13.773 153.615,13.544 153.723,13.282 C156.108,7.529 159.897,9.914 159.897,9.914 C153.021,2.898 149.232,16.229 149.232,16.229 Z" id="Shape" fill="#FFFFFF"/>
                <path d="M170.741,28.961 L170.387,27.303 L169.933,25.672 C169.659,24.574 169.232,23.528 168.882,22.456 C168.454,21.414 168.069,20.353 167.574,19.34 C166.632,17.292 165.553,15.314 164.301,13.418 C162.999,11.548 161.619,9.696 159.603,8.251 C158.608,7.548 157.342,6.946 155.898,6.967 C155.182,6.946 154.482,7.168 153.844,7.433 C153.236,7.747 152.668,8.121 152.214,8.567 C150.367,10.347 149.423,12.513 148.61,14.642 C148.215,15.717 147.886,16.804 147.611,17.913 C147.541,18.2 147.479,18.446 147.412,18.8 L147.258,19.597 L146.955,21.191 C146.52,23.312 146.007,25.426 145.401,27.518 C145.122,28.57 144.794,29.61 144.463,30.649 C144.142,31.691 143.807,32.73 143.44,33.759 C142.743,35.829 141.971,37.876 141.186,39.918 C140.393,41.958 139.558,43.982 138.705,46 C137.84,48.013 136.953,50.017 136.04,52.011 C135.119,54.001 134.186,55.986 133.223,57.958 C132.337,59.966 131.028,61.77 130.816,64.127 C130.808,64.218 130.837,64.313 130.901,64.386 C131.027,64.527 131.244,64.539 131.384,64.413 C133.151,62.84 133.844,60.724 134.893,58.779 C135.879,56.805 136.835,54.815 137.781,52.819 C138.718,50.819 139.63,48.807 140.521,46.784 C141.4,44.756 142.26,42.719 143.081,40.663 C143.894,38.605 144.692,36.54 145.419,34.445 C145.801,33.405 146.15,32.352 146.486,31.294 C146.833,30.24 147.175,29.184 147.47,28.111 C148.107,25.982 148.653,23.819 149.12,21.635 L149.444,19.989 L149.603,19.165 L149.768,18.443 C150.023,17.417 150.333,16.395 150.699,15.404 C151.426,13.446 152.367,11.479 153.727,10.198 C155.072,8.845 156.727,8.912 158.334,10.081 C159.915,11.202 161.251,12.922 162.441,14.653 C163.613,16.429 164.648,18.327 165.543,20.277 C166.02,21.24 166.394,22.248 166.811,23.237 C167.147,24.255 167.566,25.248 167.831,26.287 L168.275,27.832 L168.621,29.399 C168.883,30.44 169,31.503 169.155,32.56 C169.334,33.616 169.315,34.687 169.408,35.75 C169.444,36.815 169.368,37.88 169.356,38.946 C169.255,40.005 169.112,41.061 168.995,42.12 L168.331,45.112 C168.357,45.071 168.388,45.029 168.414,44.988 L168.303,45.24 L168.331,45.111 C167.557,46.31 166.708,47.527 165.829,48.692 C164.926,49.909 163.975,51.093 163.01,52.263 C162.532,52.853 162.027,53.418 161.536,53.998 C161.052,54.582 160.522,55.125 160.015,55.69 C159.51,56.257 158.983,56.801 158.448,57.338 C157.913,57.874 157.398,58.433 156.836,58.942 L155.184,60.504 L153.47,62 C152.908,62.51 152.304,62.966 151.709,63.434 C151.105,63.89 150.536,64.395 149.903,64.809 L148.042,66.105 C147.418,66.533 146.755,66.896 146.113,67.295 C145.47,67.693 144.822,68.082 144.139,68.405 C143.465,68.746 142.811,69.119 142.24,69.702 L142.217,69.725 C142.136,69.809 142.092,69.927 142.107,70.051 C142.132,70.271 142.332,70.429 142.551,70.404 C143.357,70.31 144.081,70.006 144.785,69.67 C145.501,69.354 146.18,68.972 146.853,68.58 C147.526,68.187 148.222,67.829 148.875,67.406 L150.829,66.124 C151.494,65.714 152.091,65.213 152.725,64.761 C153.35,64.297 153.985,63.844 154.575,63.337 L156.377,61.853 L158.105,60.286 C158.69,59.772 159.225,59.209 159.783,58.668 C160.34,58.126 160.888,57.576 161.414,57.003 C161.941,56.433 162.492,55.884 162.998,55.294 C163.508,54.709 164.034,54.137 164.532,53.541 C165.529,52.35 166.498,51.136 167.428,49.89 C168.367,48.644 169.25,47.387 170.116,46.044 L170.132,46.02 C170.175,45.952 170.208,45.874 170.228,45.791 L171.012,42.477 C171.158,41.352 171.325,40.227 171.447,39.099 C171.472,37.966 171.557,36.83 171.527,35.698 C171.441,34.569 171.463,33.427 171.285,32.309 C171.127,31.189 171.007,30.061 170.741,28.961 Z" id="Shape" fill="#27292E"/>
                <path d="M168.413,44.993 C168.387,45.034 168.356,45.076 168.33,45.117 L168.302,45.246 L168.413,44.993 Z" id="Shape" fill="#27292E"/>
                <path d="M63.99,43.837 C67.113,51.142 81.865,58.153 81.865,58.153 L85.316,57.155 C73.28,40.301 70.768,14.433 70.768,14.433 C59.149,29.982 63.99,43.837 63.99,43.837 Z" id="Shape" fill="#E86087"/>
                <path d="M138.223,63.195 L140.846,65.124 C140.846,65.124 154.169,55.501 162.154,44.829 C162.154,44.829 169.624,33.321 157.133,16.064 C157.133,16.065 150.159,51.816 138.223,63.195 Z" id="Shape" fill="#E86087"/>
                <g id="Group" transform="translate(123.000000, 243.000000)">
                    <path d="M13.868,14.027 C13.868,14.027 1.383,12.669 4.35,1.868 C4.35,1.868 0.32,4.434 1.828,10.889 C1.828,10.889 5.269,22.28 24.424,19.697 C24.424,19.697 25.714,14.746 22.486,10.657 L13.868,14.027 Z" id="Shape" fill="#41435A"/>
                    <path d="M19.048,21.078 C4.036,21.078 0.993,11.583 0.871,11.179 C-0.796,4.053 3.624,1.145 3.813,1.025 C4.161,0.803 4.612,0.818 4.944,1.064 C5.277,1.31 5.424,1.735 5.314,2.133 C4.579,4.813 4.816,7.07 6.021,8.842 C8.152,11.976 12.674,12.838 13.746,13.001 L22.121,9.726 C22.528,9.567 22.996,9.692 23.27,10.038 C26.766,14.467 25.449,19.728 25.391,19.95 C25.288,20.343 24.959,20.635 24.557,20.689 C22.638,20.947 20.784,21.078 19.048,21.078 Z M2.906,5.522 C2.475,6.761 2.285,8.449 2.802,10.662 C2.893,10.942 5.59,19.078 19.048,19.078 C20.479,19.078 21.997,18.984 23.572,18.797 C23.748,17.514 23.898,14.542 22.13,11.87 L14.233,14.959 C14.083,15.018 13.921,15.038 13.76,15.022 C13.497,14.994 7.296,14.273 4.368,9.967 C3.478,8.656 2.989,7.171 2.906,5.522 Z" id="Shape" fill="#27292E"/>
                </g>
                <path d="M95.017,3.343 C95.017,3.343 87.499,3.343 83.741,6.76 C83.741,6.76 93.821,27.26 97.068,59.892 C97.068,59.892 95.017,23.674 86.132,7.101 C86.132,7.102 91.087,4.197 95.017,3.343 Z" id="Shape" fill="#9193A7"/>
                <path d="M70.943,14.035 L69.686,13.436 C69.727,13.916 69.777,14.395 69.822,14.874 C69.969,14.756 70.116,14.638 70.263,14.522 C70.486,14.35 70.734,14.17 70.943,14.035 Z" id="Shape" fill="#27292E"/>
                <path d="M85.5,57.018 C84.413,55.424 83.445,53.734 82.499,52.045 C81.566,50.346 80.696,48.612 79.885,46.853 C78.264,43.334 76.813,39.736 75.636,36.048 C74.434,32.368 73.492,28.608 72.761,24.813 C72.595,23.861 72.406,22.913 72.27,21.957 C72.112,21.004 71.971,20.048 71.853,19.089 C71.594,17.174 71.426,15.25 71.283,13.324 L71.283,13.314 C71.271,13.175 71.224,13.038 71.138,12.916 C70.883,12.556 70.385,12.471 70.026,12.726 L70.025,12.726 C69.742,12.95 69.516,13.153 69.278,13.376 C69.043,13.594 68.827,13.831 68.61,14.064 C68.183,14.537 67.787,15.036 67.422,15.555 C66.688,16.589 66.123,17.758 65.833,18.981 C65.812,19.074 65.852,19.174 65.938,19.223 C66.043,19.283 66.178,19.246 66.238,19.14 L66.243,19.132 C66.54,18.608 66.837,18.099 67.194,17.628 C67.54,17.152 67.917,16.702 68.315,16.273 C68.713,15.845 69.136,15.441 69.583,15.066 C69.662,15 69.743,14.939 69.823,14.875 C69.778,14.396 69.728,13.917 69.687,13.437 L70.944,14.036 C70.735,14.171 70.487,14.35 70.264,14.524 C70.117,14.639 69.97,14.758 69.823,14.876 C69.961,16.353 70.115,17.828 70.329,19.295 C70.583,21.243 70.95,23.174 71.341,25.097 C72.16,28.937 73.191,32.731 74.481,36.434 C75.118,38.288 75.814,40.122 76.572,41.929 C77.332,43.735 78.128,45.527 79.019,47.272 C79.903,49.02 80.846,50.737 81.85,52.418 C82.854,54.101 83.925,55.737 85.134,57.293 C85.207,57.388 85.344,57.411 85.445,57.342 C85.55,57.271 85.577,57.128 85.506,57.023 L85.5,57.018 Z" id="Shape" fill="#27292E"/>
                <path d="M156.242,15.89 C156.451,16.025 156.699,16.204 156.922,16.378 C157.031,16.463 157.14,16.552 157.249,16.639 L157.49,15.364 L156.242,15.89 Z" id="Shape" fill="#27292E"/>
                <path d="M160.717,19.056 C160.446,18.484 160.139,17.923 159.765,17.41 C159.4,16.89 159.003,16.391 158.577,15.918 C158.36,15.684 158.144,15.447 157.909,15.23 C157.671,15.007 157.445,14.804 157.162,14.58 L157.161,14.58 C157.069,14.515 156.959,14.467 156.842,14.446 C156.408,14.368 155.994,14.656 155.916,15.089 L155.913,15.106 L154.7,21.839 L153.956,25.176 C153.703,26.287 153.487,27.408 153.203,28.512 L152.328,31.817 C152.044,32.921 151.748,34.022 151.39,35.104 L150.371,38.367 C150.019,39.451 149.605,40.513 149.225,41.586 C148.847,42.661 148.451,43.73 147.997,44.774 C147.551,45.821 147.147,46.889 146.667,47.92 L145.217,51.013 L143.639,54.041 L141.934,56.998 C141.306,57.946 140.737,58.936 140.062,59.851 C139.421,60.793 138.724,61.689 138.026,62.587 C137.3,63.457 136.577,64.346 135.754,65.11 C135.665,65.193 135.654,65.333 135.733,65.427 C135.815,65.524 135.961,65.537 136.057,65.455 C136.954,64.702 137.725,63.845 138.511,62.995 C139.264,62.12 139.99,61.221 140.671,60.29 C141.386,59.381 141.992,58.399 142.658,57.457 L144.478,54.515 L146.151,51.487 L147.672,48.381 C148.176,47.344 148.602,46.273 149.07,45.22 C149.547,44.169 149.966,43.096 150.366,42.016 C150.768,40.937 151.205,39.869 151.578,38.78 L152.663,35.499 C153.043,34.411 153.361,33.304 153.667,32.194 L154.606,28.869 C154.912,27.759 155.149,26.632 155.423,25.514 L156.206,22.15 L157.249,16.64 C157.14,16.554 157.031,16.465 156.922,16.379 C156.699,16.205 156.451,16.025 156.242,15.891 L157.49,15.365 L157.249,16.64 C157.367,16.734 157.487,16.825 157.603,16.922 C158.049,17.297 158.473,17.701 158.872,18.13 C159.268,18.56 159.65,19.006 159.999,19.481 C160.355,19.954 160.644,20.467 160.943,20.989 L160.955,21.01 C161.005,21.096 161.108,21.14 161.207,21.11 C161.323,21.075 161.389,20.954 161.353,20.838 C161.263,20.541 161.207,20.223 161.084,19.933 C160.978,19.633 160.854,19.342 160.717,19.056 Z" id="Shape" fill="#27292E"/>
                <g id="Group" transform="translate(79.000000, 217.000000)" fill="#FE3D6C">
                    <path d="M9.457,15.702 C6.788,15.539 4.757,13.061 4.935,10.181 C5.112,7.299 7.429,5.09 10.1,5.253 C11.505,5.339 12.732,6.067 13.551,7.156 C14.053,5.682 14.874,4.38 15.917,3.339 C14.452,1.876 12.525,0.932 10.372,0.8 C5.423,0.495 1.13,4.59 0.802,9.927 C0.475,15.263 4.235,19.853 9.185,20.156 C12.097,20.336 14.781,18.991 16.565,16.767 L16.836,12.365 L14.347,12.213 C13.627,14.354 11.663,15.838 9.457,15.702 Z" id="Shape"/>
                    <g transform="translate(13.000000, 1.000000)" id="Shape">
                        <path d="M11.043,0.639 C6.095,0.335 1.799,4.429 1.473,9.767 L0.931,18.577 L5.062,18.83 L5.103,18.156 L5.447,12.554 L5.603,10.02 C5.779,7.139 8.097,4.929 10.769,5.093 C12.256,5.184 13.545,5.993 14.366,7.191 L19.074,7.479 C18.031,3.713 14.899,0.876 11.043,0.639 Z"/>
                        <path d="M10.128,15.542 C8.942,15.47 7.869,14.948 7.06,14.103 L6.748,19.179 C7.717,19.644 8.766,19.929 9.853,19.996 C13.71,20.231 17.166,17.8 18.661,14.188 L13.953,13.899 C12.993,14.987 11.615,15.634 10.128,15.542 Z"/>
                    </g>
                </g>
                <path d="M71.798,319.401 C71.798,319.401 74.225,320.093 75.38,320.093 L80.579,314.201 C80.579,314.201 78.383,313.854 77.921,313.392 C77.921,313.394 72.953,317.206 71.798,319.401 Z" id="Shape" fill="#9193A7" opacity="0.5"/>
                <path d="M111.657,320.671 C111.657,320.671 114.084,321.364 115.239,321.364 L120.438,315.471 C120.438,315.471 118.242,315.125 117.78,314.662 C117.78,314.663 112.813,318.476 111.657,320.671 Z" id="Shape" fill="#9193A7" opacity="0.5"/>
                <path d="M123.703,77.86 C117.445,75.284 110.659,76.842 106.25,82.081 C105.57,82.888 108.573,84.977 109.362,84.038 C112.782,79.975 118.601,77.611 123.694,79.708 C125.993,80.656 125.24,78.494 123.703,77.86 Z" id="Shape" fill="#27292E"/>
                <path d="M76.194,74.705 C75.507,75.214 75.177,78.102 76.152,77.379 C79.96,74.553 85.131,74.19 89.032,76.977 C89.895,77.593 90.855,74.795 90.139,74.284 C85.866,71.229 80.374,71.603 76.194,74.705 Z" id="Shape" fill="#27292E"/>
                <path d="M88.999,97.937 C85.678,95.763 81.82,94.672 77.774,95.843 C76.579,97.519 76.064,99.817 76.551,102.173 C77.405,106.292 80.998,109.042 84.562,108.304 C88.127,107.566 90.333,103.615 89.479,99.495 C89.366,98.949 89.202,98.429 88.999,97.937 Z" id="Shape" fill="#DDE5F2"/>
                <ellipse id="Oval" fill="#27292E" transform="translate(84.095751, 100.758365) rotate(-101.700978) translate(-84.095751, -100.758365) " cx="84.0957508" cy="100.758365" rx="6.49987156" ry="5.41889292"/>
                <path d="M89.734,97.235 C89.514,96.944 89.257,96.611 88.949,96.265 C88.666,95.885 88.252,95.605 87.835,95.265 C87.422,94.908 86.912,94.672 86.391,94.399 C86.133,94.251 85.858,94.139 85.572,94.053 C85.289,93.954 85,93.86 84.706,93.771 C84.118,93.607 83.505,93.527 82.897,93.436 C82.289,93.419 81.674,93.339 81.083,93.399 C80.487,93.425 79.906,93.481 79.356,93.591 C78.249,93.774 77.257,94.105 76.441,94.448 C75.624,94.794 74.979,95.16 74.548,95.453 C74.112,95.738 73.891,95.944 73.891,95.944 C73.891,95.944 74.186,95.936 74.702,95.923 C74.953,95.914 75.258,95.902 75.607,95.889 C75.951,95.867 76.345,95.877 76.758,95.841 C77.598,95.833 78.553,95.779 79.559,95.792 C80.063,95.78 80.576,95.803 81.094,95.82 C81.615,95.816 82.127,95.9 82.648,95.922 C83.157,95.99 83.67,96.05 84.165,96.135 C84.642,96.272 85.158,96.294 85.597,96.468 C86.046,96.618 86.519,96.704 86.91,96.904 C87.307,97.089 87.749,97.187 88.077,97.404 C88.419,97.602 88.759,97.767 89.067,97.919 C89.336,98.111 89.588,98.274 89.798,98.411 C90.219,98.685 90.494,98.837 90.494,98.837 C90.494,98.837 90.399,98.561 90.175,98.087 C90.059,97.853 89.925,97.554 89.734,97.235 Z" id="Shape" fill="#27292E"/>
                <ellipse id="Oval" fill="#FFFFFF" transform="translate(79.565596, 99.228890) rotate(-101.688595) translate(-79.565596, -99.228890) " cx="79.565596" cy="99.2288905" rx="2.00007525" ry="2.20008277"/>
                <path d="M121.619,103.085 C121.354,102.811 120.983,102.617 120.594,102.366 C120.2,102.123 119.775,101.831 119.261,101.666 C118.754,101.493 118.228,101.228 117.634,101.156 C117.048,101.056 116.436,100.911 115.804,100.947 C115.49,100.947 115.17,100.942 114.851,100.954 L113.904,101.089 C113.266,101.17 112.667,101.382 112.074,101.572 C111.493,101.79 110.938,102.049 110.43,102.334 C109.928,102.633 109.451,102.928 109.042,103.267 C108.616,103.58 108.263,103.937 107.938,104.258 C106.648,105.566 106.186,106.727 106.186,106.727 C106.186,106.727 106.452,106.588 106.915,106.345 C107.368,106.103 108.021,105.784 108.775,105.415 C109.544,105.064 110.421,104.679 111.363,104.337 C111.836,104.172 112.326,104.022 112.817,103.876 C113.321,103.774 113.814,103.597 114.327,103.552 L115.087,103.421 C115.342,103.415 115.594,103.39 115.847,103.372 C116.353,103.302 116.848,103.357 117.337,103.354 C117.832,103.323 118.294,103.452 118.756,103.48 C119.221,103.501 119.646,103.617 120.054,103.696 C120.45,103.801 120.86,103.815 121.181,103.936 C121.508,104.043 121.81,104.115 122.06,104.182 C122.56,104.311 122.873,104.366 122.873,104.366 C122.873,104.366 122.686,104.132 122.314,103.754 C122.128,103.567 121.9,103.332 121.619,103.085 Z" id="Shape" fill="#27292E"/>
                <path d="M99.468,125.14 C81.193,135.469 81.536,163.797 81.536,163.797 C81.794,166.986 77.222,169.14 77.222,169.14 C85.515,180.891 99.097,182.89 99.097,182.89 C107.472,182.163 109.006,171.893 109.006,171.893 C111.783,159.795 111.829,150.664 110.601,143.836 C96.342,130.517 100.325,128.257 99.468,125.14 Z" id="Shape" fill="#474B60"/>
                <path d="M84.042,116.388 C84.042,116.388 49.679,116.388 34.767,114.875 L17.477,113.362 C17.477,113.362 5.159,107.527 4.51,123.952 C4.51,123.952 10.561,162.422 30.661,174.092 C30.661,174.092 49.03,179.495 60.053,178.631 C60.053,178.631 97.01,162.422 101.98,141.458 C102.512,140.333 104.682,121.807 84.042,116.388 Z" id="Shape" fill="#52556D"/>
                <path d="M78.669,116.5 C78.669,116.5 62.462,116.498 45.883,115.617 C34.76,115.026 23.471,113.61 16.795,113.139 C16.795,113.139 32.903,121.585 45.226,121.781 C45.226,121.781 64.001,122.368 75.54,119.63 C75.54,119.63 95.099,116.696 94.12,131.561 C94.12,131.561 91.347,152.016 60.053,178.633 C57.815,179.591 118.538,155.355 98.616,123.543 C98.616,123.542 91.187,115.131 78.669,116.5 Z" id="Shape" fill="#474B60"/>
                <path d="M26.862,167.705 C26.469,167.22 26.052,166.703 25.612,166.158 C25.188,165.601 24.663,165.085 24.245,164.437 C23.804,163.811 23.345,163.158 22.87,162.483 C22.401,161.804 21.866,161.141 21.432,160.376 C20.532,158.872 19.5,157.342 18.631,155.637 C18.184,154.794 17.699,153.953 17.263,153.074 C16.85,152.181 16.424,151.283 15.986,150.383 C15.529,149.491 15.169,148.545 14.771,147.612 C14.383,146.674 13.967,145.745 13.637,144.779 C13.281,143.825 12.924,142.87 12.57,141.919 C12.253,140.954 11.936,139.994 11.623,139.04 C11.048,137.117 10.466,135.227 10.007,133.368 C9.543,131.512 9.123,129.708 8.786,127.988 C8.619,127.114 8.477,126.316 8.351,125.465 C8.253,124.667 8.106,123.891 8.102,123.146 C8.039,121.66 8.143,120.28 8.511,119.13 C8.865,117.977 9.434,117.06 10.028,116.418 C10.626,115.777 11.207,115.372 11.629,115.145 C12.05,114.915 12.301,114.842 12.301,114.842 C12.301,114.842 12.043,114.877 11.584,115.047 C11.132,115.221 10.457,115.522 9.759,116.141 C9.059,116.749 8.336,117.666 7.818,118.874 C7.28,120.076 7.001,121.555 6.96,123.152 C6.904,123.956 6.992,124.779 7.032,125.641 C7.085,126.448 7.206,127.353 7.319,128.228 C7.566,130.001 7.872,131.865 8.298,133.77 C8.714,135.676 9.199,137.636 9.778,139.603 C10.088,140.581 10.399,141.566 10.713,142.556 C11.066,143.533 11.418,144.513 11.772,145.494 C12.117,146.478 12.557,147.426 12.963,148.381 C13.381,149.332 13.762,150.295 14.24,151.206 C14.692,152.128 15.151,153.039 15.612,153.933 C16.091,154.818 16.616,155.665 17.104,156.512 C18.039,158.233 19.197,159.741 20.203,161.221 C21.225,162.692 22.381,163.947 23.356,165.161 C24.372,166.347 25.439,167.313 26.323,168.216 C27.187,169.14 28.087,169.795 28.773,170.386 C30.173,171.538 30.985,172.17 30.985,172.17 C30.985,172.17 30.285,171.4 29.039,170.102 C28.424,169.444 27.616,168.711 26.862,167.705 Z" id="Shape" fill="#9193A7"/>
                <path d="M80.614,169.574 C80.614,169.574 85.04,176.985 98.626,179.559 C98.626,179.559 100.274,178.838 99.038,176.985 C99.038,176.985 86.378,175.235 80.614,169.574 Z" id="Shape" fill="#9193A7" opacity="0.5"/>
                <path d="M99.673,143.331 C99.49,142.891 99.396,142.664 99.396,142.664 C99.186,142.154 98.602,141.914 98.092,142.124 C97.582,142.334 97.34,142.918 97.55,143.429 L97.585,143.513 C97.585,143.513 97.659,143.695 97.805,144.046 C97.942,144.399 98.116,144.934 98.22,145.651 C98.449,147.068 98.157,149.316 96.529,151.747 C95.739,152.962 94.654,154.204 93.339,155.429 C92.68,156.041 91.96,156.647 91.184,157.246 C90.787,157.568 90.427,157.786 89.896,158.254 C89.514,158.602 89.125,158.956 88.731,159.316 C87.175,160.783 85.428,162.235 83.593,163.774 C82.652,164.502 81.685,165.247 80.697,166.01 C79.706,166.772 78.607,167.493 77.532,168.262 C75.373,169.741 73.066,171.336 70.704,172.865 C68.325,174.384 65.806,175.863 63.079,176.896 C62.376,177.157 61.756,177.359 61.016,177.542 L60.453,177.673 L60.311,177.706 C60.304,177.708 60.228,177.726 60.277,177.714 L60.217,177.723 L59.979,177.759 C59.649,177.801 59.29,177.822 58.923,177.831 C57.447,177.858 55.888,177.74 54.322,177.59 C51.185,177.277 47.969,176.811 44.711,176.285 C41.453,175.752 38.142,175.156 34.822,174.469 L33.587,174.202 C33.149,174.101 32.795,174.026 32.441,173.902 C31.722,173.658 31.013,173.298 30.329,172.875 C28.958,172.02 27.683,170.922 26.483,169.732 C24.087,167.337 21.974,164.574 20.032,161.691 C18.092,158.801 16.327,155.768 14.717,152.654 C11.515,146.425 8.858,139.875 7.179,133.212 C6.36,129.885 5.779,126.509 5.792,123.208 C5.804,121.563 5.975,119.934 6.435,118.439 C6.887,116.948 7.667,115.605 8.813,114.725 C9.949,113.83 11.417,113.427 12.919,113.368 C13.682,113.339 14.419,113.383 15.194,113.486 C15.991,113.596 16.783,113.705 17.571,113.814 C20.742,114.278 23.854,114.625 26.884,114.965 C32.947,115.607 38.691,116.03 43.995,116.366 C54.606,117.007 63.46,117.218 69.658,117.296 C72.758,117.335 75.193,117.229 76.854,117.158 C78.514,117.062 79.4,116.974 79.4,116.974 C79.584,116.955 79.736,116.807 79.751,116.616 C79.767,116.402 79.606,116.216 79.393,116.2 C79.393,116.2 78.51,116.133 76.855,116.034 C75.199,115.966 72.771,115.832 69.681,115.782 C63.501,115.668 54.669,115.438 44.096,114.759 C38.812,114.406 33.091,113.965 27.063,113.305 C24.052,112.955 20.959,112.6 17.813,112.128 C17.021,112.016 16.224,111.903 15.423,111.79 C14.601,111.678 13.714,111.617 12.849,111.65 C11.115,111.71 9.245,112.184 7.749,113.352 C6.243,114.503 5.283,116.205 4.759,117.918 C4.224,119.647 4.041,121.429 4.021,123.192 C3.997,126.726 4.594,130.215 5.424,133.644 C7.128,140.499 9.806,147.157 13.045,153.515 C14.673,156.691 16.461,159.789 18.439,162.757 C20.422,165.719 22.58,168.572 25.104,171.114 C26.371,172.378 27.732,173.567 29.287,174.548 C30.067,175.034 30.898,175.466 31.806,175.777 C32.263,175.938 32.747,176.044 33.144,176.135 L34.414,176.413 C37.776,177.122 41.1,177.731 44.386,178.281 C47.672,178.821 50.912,179.309 54.128,179.622 C55.739,179.774 57.334,179.899 58.979,179.868 C59.392,179.855 59.81,179.834 60.249,179.777 L60.585,179.725 L60.669,179.712 L60.775,179.689 L60.917,179.656 L61.48,179.524 C62.235,179.34 63.076,179.073 63.794,178.8 C66.758,177.671 69.365,176.124 71.801,174.57 C74.239,172.988 76.478,171.435 78.694,169.914 C79.776,169.14 80.851,168.434 81.873,167.648 C82.894,166.859 83.891,166.089 84.862,165.337 C86.731,163.767 88.511,162.284 90.091,160.791 C90.492,160.424 90.888,160.063 91.276,159.708 C91.525,159.483 92.027,159.137 92.414,158.829 C93.231,158.197 93.999,157.552 94.706,156.894 C96.118,155.577 97.309,154.223 98.207,152.842 C100.064,150.106 100.52,147.216 100.207,145.378 C100.068,144.457 99.844,143.774 99.673,143.331 Z" id="Shape" fill="#27292E"/>
                <path d="M102.474,181.841 L102.463,181.84 C102.463,181.84 102.346,181.829 102.128,181.81 C101.915,181.794 101.605,181.773 101.201,181.726 C100.401,181.656 99.264,181.542 97.916,181.378 C97.242,181.283 96.512,181.21 95.749,181.064 C94.979,180.957 94.189,180.75 93.369,180.56 C92.55,180.367 91.721,180.101 90.883,179.835 C90.074,179.492 89.202,179.257 88.422,178.825 L87.225,178.239 C86.832,178.034 86.473,177.777 86.099,177.552 C85.734,177.313 85.35,177.106 85.009,176.849 C84.676,176.581 84.347,176.318 84.023,176.058 C83.347,175.572 82.802,174.981 82.274,174.433 C82.009,174.161 81.752,173.896 81.503,173.639 C81.288,173.353 81.081,173.076 80.882,172.81 C80.494,172.27 80.091,171.81 79.817,171.344 C79.547,170.874 79.312,170.464 79.119,170.127 C78.729,169.452 78.507,169.067 78.507,169.067 L78.444,168.957 C78.172,168.485 77.57,168.319 77.093,168.587 C76.613,168.856 76.441,169.464 76.71,169.944 C76.71,169.944 76.946,170.367 77.36,171.107 C77.569,171.477 77.822,171.925 78.112,172.44 C78.416,172.948 78.857,173.458 79.286,174.046 C79.507,174.336 79.737,174.639 79.975,174.952 C80.249,175.234 80.533,175.526 80.825,175.826 C81.409,176.428 82.015,177.071 82.758,177.608 C83.115,177.891 83.479,178.18 83.847,178.472 C84.222,178.752 84.64,178.981 85.041,179.242 C85.45,179.488 85.848,179.765 86.275,179.989 L87.58,180.626 C88.435,181.088 89.369,181.355 90.252,181.706 C91.16,181.978 92.057,182.245 92.937,182.435 C93.822,182.602 94.675,182.77 95.496,182.844 C96.31,182.959 97.087,182.999 97.803,183.021 C98.518,183.043 99.176,183.008 99.755,182.971 C100.335,182.915 100.838,182.866 101.251,182.784 C101.661,182.709 101.987,182.638 102.209,182.585 C102.424,182.524 102.538,182.491 102.538,182.491 C102.667,182.454 102.767,182.342 102.779,182.2 C102.793,182.02 102.658,181.857 102.474,181.841 Z" id="Shape" fill="#27292E"/>
                <path d="M20.607,124.063 C15.778,122.26 13.819,123.819 13.113,125.704 C12.409,127.59 13.226,129.088 18.054,130.892 C22.882,132.696 29.122,132.63 29.827,130.745 C30.531,128.858 25.434,125.867 20.607,124.063 Z" id="Shape" fill="#27292E"/>
                <path d="M74.151,128.86 C68.748,129.19 59.068,131.825 59.367,133.894 C59.664,135.963 69.825,136.683 75.232,136.353 C80.632,136.023 82.931,134.191 82.632,132.122 C82.335,130.052 79.555,128.529 74.151,128.86 Z" id="Shape" fill="#27292E"/>
                <path d="M104.343,148.45 C104.226,148.05 104.031,147.486 103.701,146.85 C103.549,146.525 103.366,146.182 103.135,145.842 C102.906,145.502 102.688,145.124 102.398,144.781 C102.116,144.433 101.851,144.049 101.516,143.717 C101.195,143.373 100.87,143.021 100.508,142.708 C99.097,141.411 97.445,140.423 96.138,139.859 C94.832,139.294 93.833,139.231 93.833,139.231 C93.675,139.223 93.515,139.304 93.435,139.452 C93.324,139.658 93.4,139.914 93.605,140.026 C93.605,140.026 94.377,140.455 95.536,141.098 C96.116,141.411 96.778,141.802 97.457,142.264 C97.782,142.514 98.145,142.737 98.471,143.017 C98.812,143.28 99.143,143.564 99.463,143.859 C99.798,144.139 100.097,144.455 100.395,144.764 C100.706,145.061 100.961,145.396 101.231,145.703 C101.509,146.004 101.714,146.343 101.941,146.641 C102.174,146.936 102.357,147.24 102.533,147.516 C102.701,147.797 102.895,148.035 103.024,148.27 C103.153,148.505 103.267,148.71 103.372,148.874 C103.572,149.208 103.701,149.397 103.701,149.397 L103.726,149.435 C103.829,149.585 104.017,149.663 104.204,149.616 C104.443,149.555 104.588,149.313 104.527,149.074 C104.525,149.075 104.468,148.846 104.343,148.45 Z" id="Shape" fill="#27292E"/>
            </g>
        </g>
    </g>
</symbol></svg>