<?xml version="1.0" encoding="UTF-8"?>
<svg width="150px" height="166px" viewBox="0 0 150 166" version="1.1" xmlns="http://www.w3.org/2000/svg" xmlns:xlink="http://www.w3.org/1999/xlink">
    <title>gravity-header</title>
    <g id="Page-1" stroke="none" stroke-width="1" fill="none" fill-rule="evenodd">
        <g id="gravity-header" fill-rule="nonzero">
            <path d="M149.806701,111.997423 C149.806701,119.536082 144.471649,128.775773 137.938144,132.525773 L86.7912371,162.061856 C80.257732,165.811856 69.5876289,165.811856 63.0541237,162.061856 L11.9072165,132.525773 C5.41237113,128.775773 0.0773195876,119.536082 0.0773195876,111.997423 L0.0773195876,52.9252577 C0.0773195876,45.3865979 5.41237113,36.1469072 11.9458763,32.3969072 L63.0541237,2.86082474 C69.5876289,-0.889175258 80.257732,-0.889175258 86.7912371,2.86082474 L137.938144,32.3969072 C144.471649,36.1469072 149.806701,45.3865979 149.806701,52.9252577 L149.806701,111.997423 L149.806701,111.997423 Z" id="Path" fill="#F15A2B"></path>
            <path d="M60.3865979,68.7757732 L128.157216,68.7757732 L128.157216,49.7164948 L60.5798969,49.7164948 C50.9149485,49.7164948 42.8737113,53.0412371 36.7654639,59.5747423 C21.9974227,75.2706186 21.6108247,114.858247 21.6108247,114.858247 L127.693299,114.858247 L127.693299,79.0592784 L108.634021,79.0592784 L108.634021,95.7989691 L41.9072165,95.7989691 C42.3324742,89.5747423 45.193299,78.4020619 50.6056701,72.6417526 C53.0798969,70.0128866 56.2113402,68.7757732 60.3865979,68.7757732 L60.3865979,68.7757732 Z" id="Path" fill="#FFFFFF"></path>
        </g>
    </g>
</svg>