<?xml version="1.0" encoding="UTF-8"?>
<svg width="251px" height="72px" viewBox="0 0 251 72" version="1.1" xmlns="http://www.w3.org/2000/svg" xmlns:xlink="http://www.w3.org/1999/xlink">
    <title>jetengine</title>
    <g id="Page-1" stroke="none" stroke-width="1" fill="none" fill-rule="evenodd">
        <g id="jetengine">
            <path d="M131.463,0.00542493347 C134.296,-0.152660977 135.912,3.18027002 134.029,5.29891002 L117.277,24.1573 C115.315,26.3657 111.659,24.9539 111.697,22.0027 L111.797,14.3512 C111.81,13.3487 111.349,12.3985 110.554,11.7866 L104.48,7.11613002 C102.137,5.31477002 103.297,1.57736002 106.25,1.41257002 L131.463,0.00542493347 Z" id="Path" fill="#9D64ED" fill-rule="nonzero"></path>
            <path d="M6.13496,61.851 C19.6817,61.851 30.6748,50.8681 30.6748,37.3149 L30.6748,18.9167 C30.6748,15.5206 27.9343,12.7788 24.5398,12.7788 C21.1454,12.7788 18.4049,15.5206 18.4049,18.9167 L18.4049,37.3149 C18.4049,44.0915 12.9083,49.5907 6.13496,49.5907 C2.74049,49.5907 0,52.3325 0,55.7131 C0,59.0936 2.74049,61.851 6.13496,61.851 Z M109.09,49.5907 C102.317,49.5907 96.8202,44.0915 96.8202,37.3149 L96.8202,36.7229 L101.694,36.7229 C105.088,36.7229 107.844,33.9655 107.844,30.5694 C107.844,27.1733 105.088,24.4159 101.694,24.4159 L96.8202,24.4159 L96.8202,18.9167 C96.8202,15.5362 94.0797,12.7788 90.6853,12.7788 C87.2908,12.7788 84.5503,15.5206 84.5503,18.9167 L84.5503,37.3149 C84.5503,50.8681 95.5434,61.851 109.09,61.851 C112.485,61.851 115.225,59.1092 115.225,55.7131 C115.225,52.3169 112.485,49.5907 109.09,49.5907 Z M81.0626,28.7001 C81.0626,28.7001 81.047,28.7001 81.0314,28.7157 C81.6698,30.3826 81.5764,32.2987 80.611,33.9656 C79.8169,35.3677 78.5401,36.3335 77.1075,36.7697 L52.3964,48.2511 C56.5227,50.5255 61.412,50.1361 65.0868,47.6591 C66.1767,46.5997 67.6715,45.961 69.3065,45.961 C72.6854,45.961 75.4259,48.7028 75.4259,52.0834 C75.4259,54.2799 74.2736,56.2117 72.5297,57.2866 L72.5764,57.3489 C65.0089,62.8325 54.6386,63.7049 46.0279,58.7198 C34.3341,51.9432 30.3168,36.9411 37.0746,25.2105 C43.8168,13.4644 58.7649,9.44512002 70.4743,16.2373 C75.5193,19.1661 79.1318,23.6215 81.0626,28.7001 Z M66.348,28.2795 C65.7407,27.7498 65.0868,27.2669 64.3549,26.8463 C58.5002,23.4657 51.0262,25.4754 47.6473,31.3329 C46.495,33.3425 45.9656,35.539 46.0123,37.7044 L66.348,28.2795 Z M198.772,34.2562 C199.105,33.9228 199.272,33.5129 199.272,33.0266 C199.272,32.5542 199.105,32.1512 198.772,31.8178 C198.439,31.4704 198.029,31.2967 197.543,31.2967 C197.071,31.2967 196.661,31.4704 196.314,31.8178 C195.98,32.1512 195.814,32.5542 195.814,33.0266 C195.814,33.5129 195.98,33.9228 196.314,34.2562 C196.661,34.5897 197.071,34.7564 197.543,34.7564 C198.029,34.7564 198.439,34.5897 198.772,34.2562 Z M196.626,39.0289 C196.376,39.279 196.251,39.5847 196.251,39.946 L196.251,60.7041 C196.251,61.0654 196.376,61.3711 196.626,61.6212 C196.876,61.8713 197.182,61.9963 197.543,61.9963 C197.904,61.9963 198.209,61.8713 198.459,61.6212 C198.723,61.3711 198.855,61.0654 198.855,60.7041 L198.855,39.946 C198.855,39.5847 198.723,39.279 198.459,39.0289 C198.209,38.7788 197.904,38.6538 197.543,38.6538 C197.182,38.6538 196.876,38.7788 196.626,39.0289 Z M136.689,43.9059 C138.036,45.2536 138.904,46.9626 139.293,49.0329 L121.232,49.0329 C121.648,46.9487 122.523,45.2397 123.857,43.9059 C125.634,42.1274 127.773,41.2381 130.273,41.2381 C132.773,41.2381 134.912,42.1274 136.689,43.9059 Z M137.835,57.3695 C137.585,57.1055 137.28,56.9735 136.919,56.9735 C136.613,56.9735 136.342,57.0708 136.106,57.2653 C135.301,57.96 134.412,58.4949 133.44,58.8701 C132.467,59.2313 131.412,59.412 130.273,59.412 C127.773,59.412 125.634,58.5227 123.857,56.7442 C122.523,55.4104 121.648,53.7014 121.232,51.6172 L140.647,51.6172 C141.009,51.6172 141.314,51.4922 141.564,51.2421 C141.814,50.992 141.939,50.6863 141.939,50.3251 C141.939,47.1016 140.8,44.3505 138.523,42.0718 C136.245,39.7931 133.495,38.6538 130.273,38.6538 C127.051,38.6538 124.301,39.7931 122.023,42.0718 C119.746,44.3505 118.607,47.1016 118.607,50.3251 C118.607,53.5485 119.746,56.2996 122.023,58.5783 C124.301,60.857 127.051,61.9963 130.273,61.9963 C133.176,61.9963 135.71,61.0584 137.877,59.1827 C138.099,58.9465 138.21,58.6478 138.21,58.2865 C138.21,57.9253 138.085,57.6196 137.835,57.3695 Z M144.815,39.0289 C144.565,39.279 144.44,39.5847 144.44,39.946 L144.44,60.7041 C144.44,61.0654 144.565,61.3711 144.815,61.6212 C145.065,61.8713 145.37,61.9963 145.731,61.9963 C146.092,61.9963 146.398,61.8713 146.648,61.6212 C146.898,61.3711 147.023,61.0654 147.023,60.7041 L147.023,49.4706 C147.023,47.1919 147.822,45.2606 149.419,43.6766 C151.044,42.051 152.981,41.2381 155.231,41.2381 C157.481,41.2381 159.411,42.051 161.022,43.6766 C162.633,45.2467 163.439,47.178 163.439,49.4706 L163.439,60.7041 C163.439,61.0654 163.564,61.3711 163.814,61.6212 C164.064,61.8713 164.369,61.9963 164.73,61.9963 C165.091,61.9963 165.397,61.8713 165.647,61.6212 C165.911,61.3711 166.043,61.0654 166.043,60.7041 L166.043,49.4706 C166.043,46.4833 164.98,43.9336 162.855,41.8217 C160.772,39.7098 158.231,38.6538 155.231,38.6538 C152.314,38.6538 149.578,39.8904 147.023,42.3636 L147.023,39.946 C147.023,39.5847 146.898,39.279 146.648,39.0289 C146.398,38.7788 146.092,38.6538 145.731,38.6538 C145.37,38.6538 145.065,38.7788 144.815,39.0289 Z M180.23,41.2381 C177.731,41.2381 175.592,42.1204 173.814,43.885 C172.036,45.6635 171.148,47.8032 171.148,50.3042 C171.148,52.7913 172.036,54.9241 173.814,56.7026 C175.592,58.481 177.731,59.3703 180.23,59.3703 C182.73,59.3703 184.869,58.481 186.647,56.7026 C188.411,54.938 189.292,52.8052 189.292,50.3042 C189.292,47.7893 188.411,45.6496 186.647,43.885 C184.869,42.1204 182.73,41.2381 180.23,41.2381 Z M189.292,57.7238 C186.751,60.5305 183.73,61.9338 180.23,61.9338 C177.008,61.9338 174.258,60.8014 171.981,58.5366 C169.703,56.2579 168.564,53.5138 168.564,50.3042 C168.564,47.0807 169.703,44.3366 171.981,42.0718 C174.258,39.7931 177.008,38.6538 180.23,38.6538 C183.452,38.6538 186.202,39.7931 188.48,42.0718 C190.758,44.3366 191.896,47.0807 191.896,50.3042 L191.896,62.1005 C191.896,64.4904 191.028,66.5676 189.292,68.3321 C186.848,70.7775 183.89,72.0003 180.418,72.0003 C176.946,72.0003 173.995,70.7775 171.564,68.3321 C170.661,67.4707 169.932,66.5328 169.377,65.5185 C169.224,65.2545 169.148,64.9975 169.148,64.7474 C169.148,64.3861 169.273,64.0805 169.523,63.8304 C169.773,63.5803 170.078,63.4552 170.439,63.4552 C170.8,63.4552 171.113,63.5872 171.377,63.8512 C171.488,63.9485 171.585,64.0805 171.668,64.2472 C172.141,65.0809 172.717,65.8381 173.397,66.5189 C174.37,67.4915 175.439,68.214 176.606,68.6865 C177.786,69.1728 179.057,69.4159 180.418,69.4159 C183.168,69.4159 185.515,68.4433 187.459,66.4981 C188.681,65.0253 189.292,63.5594 189.292,62.1005 L189.292,57.7238 Z M203.543,39.946 C203.543,39.5847 203.668,39.279 203.918,39.0289 C204.168,38.7788 204.474,38.6538 204.835,38.6538 C205.196,38.6538 205.502,38.7788 205.752,39.0289 C206.002,39.279 206.127,39.5847 206.127,39.946 L206.127,42.3636 C208.682,39.8904 211.418,38.6538 214.334,38.6538 C217.334,38.6538 219.876,39.7098 221.959,41.8217 C224.084,43.9336 225.146,46.4833 225.146,49.4706 L225.146,60.7041 C225.146,61.0654 225.014,61.3711 224.751,61.6212 C224.501,61.8713 224.195,61.9963 223.834,61.9963 C223.473,61.9963 223.167,61.8713 222.917,61.6212 C222.667,61.3711 222.542,61.0654 222.542,60.7041 L222.542,49.4706 C222.542,47.178 221.737,45.2467 220.126,43.6766 C218.515,42.051 216.584,41.2381 214.334,41.2381 C212.085,41.2381 210.147,42.051 208.522,43.6766 C206.925,45.2606 206.127,47.1919 206.127,49.4706 L206.127,60.7041 C206.127,61.0654 206.002,61.3711 205.752,61.6212 C205.502,61.8713 205.196,61.9963 204.835,61.9963 C204.474,61.9963 204.168,61.8713 203.918,61.6212 C203.668,61.3711 203.543,61.0654 203.543,60.7041 L203.543,39.946 Z M245.75,43.9059 C247.097,45.2536 247.965,46.9626 248.354,49.0329 L230.293,49.0329 C230.709,46.9487 231.584,45.2397 232.918,43.9059 C234.695,42.1274 236.834,41.2381 239.334,41.2381 C241.834,41.2381 243.973,42.1274 245.75,43.9059 Z M246.896,57.3695 C246.646,57.1055 246.341,56.9735 245.979,56.9735 C245.674,56.9735 245.403,57.0708 245.167,57.2653 C244.361,57.96 243.473,58.4949 242.5,58.8701 C241.528,59.2313 240.473,59.412 239.334,59.412 C236.834,59.412 234.695,58.5227 232.918,56.7442 C231.584,55.4104 230.709,53.7014 230.293,51.6172 L249.708,51.6172 C250.07,51.6172 250.375,51.4922 250.625,51.2421 C250.875,50.992 251,50.6863 251,50.3251 C251,47.1016 249.861,44.3505 247.584,42.0718 C245.306,39.7931 242.556,38.6538 239.334,38.6538 C236.112,38.6538 233.362,39.7931 231.084,42.0718 C228.807,44.3505 227.668,47.1016 227.668,50.3251 C227.668,53.5485 228.807,56.2996 231.084,58.5783 C233.362,60.857 236.112,61.9963 239.334,61.9963 C242.237,61.9963 244.771,61.0584 246.938,59.1827 C247.16,58.9465 247.271,58.6478 247.271,58.2865 C247.271,57.9253 247.146,57.6196 246.896,57.3695 Z" id="Shape" fill="#000"></path>
        </g>
    </g>
</svg>