<?xml version="1.0" encoding="UTF-8" standalone="no"?><svg xmlns="http://www.w3.org/2000/svg" width="147" height="25.573" viewBox="0 0 147 25.573"><g transform="translate(0 0)"><g transform="translate(20.793 0.071)"><path d="M45.611,32.49H31.63a1.514,1.514,0,0,0,0,3.02H45.611a1.514,1.514,0,0,0,0-3.02Z" transform="translate(-30.218 -10.198)" fill="#131212"/><path d="M31.63,3.11H45.611a1.514,1.514,0,0,0,0-3.02H31.63a1.514,1.514,0,0,0,0,3.02Z" transform="translate(-30.218 -0.09)" fill="#131212"/><path d="M61.434.11A12.66,12.66,0,0,0,48.871,11.256H31.67a1.514,1.514,0,0,0,0,3.02h17.2A12.66,12.66,0,1,0,61.434.11Zm0,22.217a9.557,9.557,0,1,1,9.557-9.557A9.557,9.557,0,0,1,61.434,22.327Z" transform="translate(-30.231 -0.096)" fill="#131212"/></g><path d="M112.866,1.152A11.855,11.855,0,0,0,107.273,0H99.016a1.541,1.541,0,0,0-1.128.489,1.631,1.631,0,0,0-.468,1.17V23.747a1.6,1.6,0,0,0,1.624,1.624,1.631,1.631,0,0,0,1.17-.468,1.541,1.541,0,0,0,.489-1.156V16.02h6.571a11.848,11.848,0,0,0,5.594-1.156,7.135,7.135,0,0,0,3.1-2.959,8.325,8.325,0,0,0,.936-3.9,8.332,8.332,0,0,0-.929-3.881,7.142,7.142,0,0,0-3.11-2.972Zm-.736,10.362q-1.5,1.376-5.181,1.376H100.7V3.1h6.247q3.681,0,5.181,1.376a4.61,4.61,0,0,1,1.514,3.536,4.61,4.61,0,0,1-1.514,3.5Z" transform="translate(-30.391 0.014)" fill="#131212"/><path d="M138.94,9.794a1.514,1.514,0,0,0-1.108-.454h-.179q-3.137,0-5.669,3.392V11.17a1.665,1.665,0,0,0-1.72-1.651,1.541,1.541,0,0,0-1.156.489,1.631,1.631,0,0,0-.468,1.17V26.665a1.6,1.6,0,0,0,1.624,1.624,1.631,1.631,0,0,0,1.17-.468,1.541,1.541,0,0,0,.489-1.156V15.69a7.321,7.321,0,0,1,2.47-2.326,6.192,6.192,0,0,1,3.158-.819h.179a1.686,1.686,0,0,0,1.19-.433,1.452,1.452,0,0,0,.468-1.121,1.6,1.6,0,0,0-.447-1.2Z" transform="translate(-40.129 -2.904)" fill="#131212"/><path d="M156.988,10.583a8.394,8.394,0,0,0-4.617-1.245,8.3,8.3,0,0,0-4.816,1.335,8.036,8.036,0,0,0-2.89,3.5,11.758,11.758,0,0,0-.936,4.727,9.638,9.638,0,0,0,2.47,7.059,9.212,9.212,0,0,0,6.88,2.511,11.124,11.124,0,0,0,6.289-1.589,1.562,1.562,0,0,0,.936-1.335,1.314,1.314,0,0,0-.433-1.011,1.452,1.452,0,0,0-1.011-.4,1.431,1.431,0,0,0-.647.144,11.008,11.008,0,0,1-2.222.833,10.823,10.823,0,0,1-2.656.289,6.467,6.467,0,0,1-4.438-1.376,5.931,5.931,0,0,1-1.878-3.936h12.233a1.576,1.576,0,0,0,1.658-1.624,10.21,10.21,0,0,0-.963-4.548,8.057,8.057,0,0,0-2.959-3.337ZM147.06,17.36a5.876,5.876,0,0,1,.9-2.959,4.816,4.816,0,0,1,1.988-1.748,5.5,5.5,0,0,1,4.816,0,4.968,4.968,0,0,1,2,1.748,5.786,5.786,0,0,1,.908,2.959Z" transform="translate(-44.838 -2.902)" fill="#131212"/><path d="M10.719,11.621l-1.087-.3-.619-.179C4.953,10,3.3,9.309,3.3,7.1c0-3.165,3.867-4,5.917-4A7.892,7.892,0,0,1,14.93,5.119a1.552,1.552,0,0,0,2.319-2.064A11.146,11.146,0,0,0,9.2,0C4.712,0,.178,2.443.178,7.1c0,4.775,4.231,5.965,7.967,7.025l.612.172,1.149.316c3.75,1.018,5.387,1.693,5.387,3.853,0,3.543-4.273,3.929-6.11,3.929a9.323,9.323,0,0,1-6.5-2.443A1.553,1.553,0,1,0,.412,22.065a12.447,12.447,0,0,0,8.772,3.44c6.791,0,9.213-3.633,9.213-7.032C18.4,13.706,14.138,12.55,10.719,11.621Z" transform="translate(0.002 0.009)" fill="#131212"/><path d="M184.806,23.054c0,2.608-1.83,5.4-6.99,5.4a9.22,9.22,0,0,1-6.6-2.608,1.419,1.419,0,0,1,1.087-2.367,1.466,1.466,0,0,1,.991.454,6.578,6.578,0,0,0,4.534,1.672c1.245,0,4.128-.248,4.128-2.566,0-1.376-1.135-1.83-3.715-2.532l-1.28-.358c-2.814-.8-6.007-1.693-6.007-5.387,0-3.578,3.44-5.456,6.846-5.456a8.256,8.256,0,0,1,6.048,2.319,1.413,1.413,0,0,1-2.105,1.885,5.449,5.449,0,0,0-3.936-1.376c-1.376,0-4.025.55-4.025,2.628,0,1.41,1.142,1.871,3.949,2.663l1.259.351C181.586,18.5,184.806,19.373,184.806,23.054Z" transform="translate(-53.293 -2.893)" fill="#131212"/><path d="M207.316,23.054c0,2.608-1.83,5.4-6.99,5.4a9.22,9.22,0,0,1-6.6-2.608,1.419,1.419,0,0,1,1.087-2.367,1.466,1.466,0,0,1,.991.454,6.578,6.578,0,0,0,4.52,1.672c1.245,0,4.128-.248,4.128-2.566,0-1.376-1.135-1.83-3.715-2.532l-1.28-.358c-2.814-.8-6.007-1.693-6.007-5.387,0-3.578,3.44-5.456,6.846-5.456a8.256,8.256,0,0,1,6.048,2.319,1.413,1.413,0,0,1-2.105,1.885,5.449,5.449,0,0,0-3.936-1.376c-1.376,0-4.025.55-4.025,2.628,0,1.41,1.142,1.871,3.949,2.663l1.259.351C204.116,18.5,207.316,19.373,207.316,23.054Z" transform="translate(-60.316 -2.893)" fill="#131212"/></g></svg>