<svg width="64px" height="64px" viewBox="0 0 64 64" version="1.1" xmlns="http://www.w3.org/2000/svg">
    <!-- Generator: Sketch 50 (54983) - http://www.bohemiancoding.com/sketch -->
    <desc>Created with Sketch.</desc>


    <g id="arrow-left-top" transform="translate(32.000000, 32.000000) rotate(-102.000000) translate(-32.000000, -32.000000) " fill="#7A9BBE">
        <path d="M63.386,16.193 L63.388,16.191 C63.39,16.188 63.392,16.185 63.394,16.181 C63.566,15.986 63.692,15.751 63.793,15.503 C63.825,15.427 63.846,15.355 63.869,15.278 C63.927,15.087 63.963,14.889 63.975,14.682 C63.981,14.606 63.993,14.534 63.991,14.456 C63.991,14.416 64.001,14.38 63.999,14.341 C63.985,14.102 63.937,13.871 63.863,13.654 C63.857,13.631 63.841,13.613 63.833,13.59 C63.745,13.351 63.619,13.139 63.47,12.945 C63.449,12.918 63.442,12.882 63.42,12.855 L53.109,0.709 C52.32,-0.221 51.025,-0.239 50.215,0.672 C49.407,1.582 49.392,3.074 50.183,4.006 L55.741,10.555 C47.62,9.479 39.637,11.188 39.26,11.272 C14.614,15.739 -2.827,38.499 0.38,62.008 C0.539,63.172 1.408,64 2.399,64 C2.505,64 2.611,63.991 2.719,63.973 C3.835,63.77 4.597,62.564 4.423,61.277 C1.566,40.337 17.479,19.995 39.96,15.919 C40.063,15.895 48.311,14.125 56.077,15.345 L47.5,20.438 C46.495,21.036 46.102,22.458 46.619,23.615 C47.135,24.774 48.367,25.223 49.375,24.632 L62.895,16.604 C63.078,16.493 63.242,16.354 63.386,16.193 Z"
              id="Shape" fill="#7A9BBE"></path>
    </g>

</svg>