<?xml version="1.0" encoding="UTF-8"?>

<svg width="12.166625px" height="12.166625px" viewBox="0 0 12.166625 12.166625" version="1.1" xmlns="http://www.w3.org/2000/svg" xmlns:xlink="http://www.w3.org/1999/xlink">
    <g id="Concept-/-UI-2.0" stroke="none" stroke-width="1" fill="none" fill-rule="evenodd">
        <g id="Table-Views-Alt" transform="translate(-1680, -296)" fill="#000000" fill-rule="nonzero">
            <g id="Body" transform="translate(0, 80)">
                <g id="Select" transform="translate(1665, 133)">
                    <g id="Group-6" transform="translate(15, 81)">
                        <g id="icon_create" transform="translate(0, 2)">
                            <path d="M1.23799651,12.166625 C0.891374944,12.166625 0.598386799,12.0469476 0.35903208,11.8075929 C0.11967736,11.5682382 0,11.2752501 0,10.9286285 L0,1.23799651 C0,0.891374944 0.11967736,0.598386799 0.35903208,0.35903208 C0.598386799,0.11967736 0.891374944,0 1.23799651,0 L5.47318898,0 L5.47318898,1.00103534 L1.23799651,1.00103534 C1.17875462,1.00103534 1.1244474,1.02571519 1.07507488,1.07507488 C1.02571519,1.1244474 1.00103534,1.17875462 1.00103534,1.23799651 L1.00103534,10.9286285 C1.00103534,10.9878704 1.02571519,11.0421776 1.07507488,11.0915501 C1.1244474,11.1409098 1.17875462,11.1655897 1.23799651,11.1655897 L10.9286285,11.1655897 C10.9878704,11.1655897 11.0421776,11.1409098 11.0915501,11.0915501 C11.1409098,11.0421776 11.1655897,10.9878704 11.1655897,10.9286285 L11.1655897,6.69343602 L12.166625,6.69343602 L12.166625,10.9286285 C12.166625,11.2791003 12.0469476,11.573051 11.8075929,11.8104806 C11.5682382,12.0479102 11.2752501,12.166625 10.9286285,12.166625 L1.23799651,12.166625 Z M9.08647628,5.15926211 L9.08647628,3.08014872 L7.00736289,3.08014872 L7.00736289,2.07911338 L9.08647628,2.07911338 L9.08647628,0 L10.0875116,0 L10.0875116,2.07911338 L12.166625,2.07911338 L12.166625,3.08014872 L10.0875116,3.08014872 L10.0875116,5.15926211 L9.08647628,5.15926211 Z" id="Shape"></path>
                        </g>
                    </g>
                </g>
            </g>
        </g>
    </g>
</svg>