<?xml version="1.0" encoding="UTF-8"?>
<svg width="23px" height="22px" viewBox="0 0 23 22" version="1.1" xmlns="http://www.w3.org/2000/svg" xmlns:xlink="http://www.w3.org/1999/xlink">
    <!-- Generator: Sketch 63.1 (92452) - https://sketch.com -->
    <title>Group 2</title>
    <desc>Created with Sketch.</desc>
    <g id="Symbols" stroke="none" stroke-width="1" fill="none" fill-rule="evenodd">
        <g id="Icon/Bulk-Copy-5" fill="#B2B2B2">
            <g id="Group-2">
                <g id="Group" transform="translate(0.000000, 8.300000)">
                    <path d="M7.14477448,6.52707061 L13.90625,5.23320073 L17.2265625,1.83809659 L21.790034,4.09476262 L21.8284572,4.11582043 C22.0882644,4.25820786 22.1834519,4.58425101 22.0410644,4.84405819 C21.9902007,4.93686675 21.913021,5.01255642 21.8192386,5.06160148 L21.8192386,5.06160148 L21.8192386,5.06160148 L10.1216084,9.39878138 L10.1156372,9.40108337 C9.84892803,9.50390355 9.55004244,9.48072376 9.30237531,9.33801163 L9.30237531,9.33801163 L9.30237531,9.33801163 L1.03794965,4.00840047 L0.781319249,3.83282983 C0.524687611,3.65725835 0.458975373,3.30688849 0.634546858,3.05025685 C0.687563372,2.97276297 0.759119068,2.90975882 0.842700993,2.86697899 L0.842700993,2.86697899 L0.842700993,2.86697899 L8.49668591,0 L7.14477448,6.52707061 Z" id="Rectangle"></path>
                    <path d="M0.634209057,4.54498595 C0.360067275,4.75681008 0.30213497,5.14732196 0.502975447,5.42960955 L0.634209057,5.6140625 L0.634209057,5.6140625 L9.25046113,11.1394396 C9.51514137,11.3091721 9.84423934,11.344533 10.1389363,11.2349043 L21.7451745,6.91732921 L21.7451745,6.91732921 L21.8728178,6.7378792 C22.0416222,6.50056202 21.9860816,6.17133545 21.7487644,6.00253106 C21.7475713,6.0016824 21.7463746,6.0008387 21.7451745,6 L21.7451745,6 L21.7451745,6 L10.1460224,10.3168694 C9.84734514,10.4280284 9.51357074,10.3901689 9.24737833,10.2149374 L0.634209057,4.54498595 L0.634209057,4.54498595 Z" id="Path-2"></path>
                    <path d="M0.620804571,6.5 C0.346662789,6.71182413 0.288730484,7.10233601 0.489570961,7.3846236 L0.620804571,7.56907655 L0.620804571,7.56907655 L9.23705665,13.0944537 C9.50173688,13.2641862 9.83083486,13.299547 10.1255318,13.1899184 L21.73177,8.87234326 L21.73177,8.87234326 L21.8594133,8.69289325 C22.0282177,8.45557607 21.9726771,8.1263495 21.7353599,7.95754511 C21.7341668,7.95669645 21.7329702,7.95585275 21.73177,7.95501405 L21.73177,7.95501405 L21.73177,7.95501405 L10.1326179,12.2718834 C9.83394066,12.3830425 9.50016626,12.3451829 9.23397384,12.1699515 L0.620804571,6.5 L0.620804571,6.5 Z" id="Path-2-Copy"></path>
                </g>
                <path d="M8.046875,13.9140625 L13.6328125,12.78125 L21.640625,4.734375 C21.8229167,4.52604167 21.9205729,4.25911458 21.9335938,3.93359375 C21.9466146,3.60807292 21.8359375,3.328125 21.6015625,3.09375 L21.6015625,3.09375 L18.90625,0.3984375 C18.671875,0.1640625 18.3789062,0.0403645833 18.0273438,0.02734375 C17.6757812,0.0143229167 17.4088542,0.111979167 17.2265625,0.3203125 L17.2265625,0.3203125 L9.21875,8.3671875 L8.046875,13.9140625 Z M11.6796875,9.890625 L10.5859375,8.796875 L16.171875,3.171875 L17.2265625,4.265625 L11.6796875,9.890625 Z M13.203125,11.4140625 L12.109375,10.3203125 L17.6953125,4.734375 L18.7890625,5.828125 L13.203125,11.4140625 Z" id="" fill-rule="nonzero"></path>
            </g>
        </g>
    </g>
</svg>