<?xml version="1.0" encoding="UTF-8"?>
<svg width="24px" height="24px" viewBox="0 0 24 24" version="1.1" xmlns="http://www.w3.org/2000/svg">
    <!-- Generator: Sketch 63.1 (92452) - https://sketch.com -->
    <title>Icon/Bulk</title>
    <desc>Created with Sketch.</desc>

    <g id="Icon/Bulk">
        <g id="Group-2">
            <g id="Group" transform="translate(0.000000, 12.000000)" fill="#B2B2B2">
                <path d="M13.1661877,0.155726038 L13.1661877,0.155726038 L13.1661877,0.155726038 L21.9378236,3.14444298 L21.9712097,3.15588261 C22.1345861,3.21186304 22.2216478,3.38968691 22.1656673,3.55306334 C22.1338563,3.64590234 22.0603065,3.71842222 21.9670282,3.74892091 L21.9670282,3.74892091 L21.9670282,3.74892091 L10.269398,6.46057188 L10.1330677,6.49343125 C9.94302567,6.53923662 9.74372563,6.52833687 9.55981231,6.46207983 L9.45016489,6.42257799 L9.45016489,6.42257799 L1.18573923,3.09044844 L0.961293381,2.99444613 C0.793747199,2.92278153 0.716019818,2.72886288 0.787684417,2.56131669 C0.825326319,2.47331289 0.899328258,2.40599175 0.990490572,2.37681961 L0.990490572,2.37681961 L0.990490572,2.37681961 L12.2545788,0.113900144 L12.2681823,0.11059854 C12.565577,0.0384198697 12.8775273,0.0540963205 13.1661877,0.155726038 Z" id="Rectangle"></path>
                <path d="M1.2461505,4.08295995 L1.18340698,4.07811308 C0.979982663,4.06239878 0.802335714,4.21456781 0.786621412,4.41799212 C0.778814953,4.51904806 0.812871417,4.61887281 0.880814265,4.69408592 L0.880814265,4.69408592 L0.880814265,4.69408592 L9.63952257,8.21799109 C9.82914558,8.29428242 10.0375929,8.31063535 10.2367931,8.26484766 L22.0435292,5.55097953 L22.0435292,5.55097953 L22.0514285,5.54523182 C22.227068,5.41743248 22.2658502,5.17144667 22.1380508,4.99580714 C22.0702235,4.90258951 21.9649132,4.84382392 21.8499651,4.83504869 L21.8499651,4.83504869 L21.8499651,4.83504869 L10.2293486,7.42711781 C10.0347673,7.47052068 9.83165403,7.45477221 9.64608861,7.38189451 L1.2461505,4.08295995 L1.2461505,4.08295995 Z" id="Path-2"></path>
                <path d="M1.18620893,5.78558581 L1.12346541,5.78073895 C0.920041092,5.76502464 0.742394143,5.91719367 0.72667984,6.12061799 C0.718873381,6.22167392 0.752929846,6.32149868 0.820872694,6.39671179 L0.820872694,6.39671179 L0.820872694,6.39671179 L9.579581,9.92061695 C9.76920401,9.99690828 9.97765131,10.0132612 10.1768516,9.96747352 L21.9835877,7.2536054 L21.9835877,7.2536054 L21.9914869,7.24785769 C22.1671265,7.12005834 22.2059086,6.87407254 22.0781093,6.69843301 C22.010282,6.60521537 21.9049716,6.54644978 21.7900235,6.53767455 L21.7900235,6.53767455 L21.7900235,6.53767455 L10.169407,9.12974367 C9.97482572,9.17314654 9.77171246,9.15739807 9.58614703,9.08452037 L1.18620893,5.78558581 L1.18620893,5.78558581 Z" id="Path-2-Copy"></path>
                <path d="M1.18620893,7.47618355 L1.12346541,7.47133668 C0.920041092,7.45562238 0.742394143,7.60779141 0.72667984,7.81121572 C0.718873381,7.91227165 0.752929846,8.01209641 0.820872694,8.08730952 L0.820872694,8.08730952 L0.820872694,8.08730952 L9.579581,11.6112147 C9.76920401,11.687506 9.97765131,11.7038589 10.1768516,11.6580713 L21.9835877,8.94420313 L21.9835877,8.94420313 L21.9914869,8.93845542 C22.1671265,8.81065608 22.2059086,8.56467027 22.0781093,8.38903074 C22.010282,8.29581311 21.9049716,8.23704751 21.7900235,8.22827229 L21.7900235,8.22827229 L21.7900235,8.22827229 L10.169407,10.8203414 C9.97482572,10.8637443 9.77171246,10.8479958 9.58614703,10.7751181 L1.18620893,7.47618355 L1.18620893,7.47618355 Z" id="Path-2-Copy-2"></path>
            </g>
            <polygon id="Path-3" fill="#FFFFFF" points="9.91349787 12.5671601 9.46226513 14.4729697 15.9951099 13.1103027 12.7238768 12"></polygon>
            <path d="M10.046875,13.9140625 L15.6328125,12.78125 L23.640625,4.734375 C23.8229167,4.52604167 23.9205729,4.25911458 23.9335938,3.93359375 C23.9466146,3.60807292 23.8359375,3.328125 23.6015625,3.09375 L23.6015625,3.09375 L20.90625,0.3984375 C20.671875,0.1640625 20.3789062,0.0403645833 20.0273438,0.02734375 C19.6757812,0.0143229167 19.4088542,0.111979167 19.2265625,0.3203125 L19.2265625,0.3203125 L11.21875,8.3671875 L10.046875,13.9140625 Z M13.6796875,9.890625 L12.5859375,8.796875 L18.171875,3.171875 L19.2265625,4.265625 L13.6796875,9.890625 Z M15.203125,11.4140625 L14.109375,10.3203125 L19.6953125,4.734375 L20.7890625,5.828125 L15.203125,11.4140625 Z" id="" fill="#B2B2B2" fill-rule="nonzero"></path>
        </g>

    </g>

</svg>