<svg width="13px" height="14px" viewBox="0 0 13 14" version="1.1" xmlns="http://www.w3.org/2000/svg">
    <g id="Settings-/-Pro" stroke="none" stroke-width="1" fill="none" fill-rule="evenodd">
        <g id="Table-Views" transform="translate(-881.000000, -394.000000)">
            <g id="Body" transform="translate(59.000000, 215.000000)" fill="#55534E" fill-rule="nonzero">
                <g id="Table-View" transform="translate(806.000000, 106.000000)">
                    <g id="delete" transform="translate(16.000000, 73.000000)">
                        <g id="icon/delete-3" transform="translate(0.000000, 0.000000)">
                            <path d="M2.32296296,14 C1.90814815,14 1.55555556,13.8548148 1.26518519,13.5644444 C0.974814815,13.2740741 0.82962963,12.9214815 0.82962963,12.5066667 L0.82962963,1.97037037 L0,1.97037037 L0,0.725925926 L3.73333333,0.725925926 L3.73333333,0 L8.71111111,0 L8.71111111,0.725925926 L12.4444444,0.725925926 L12.4444444,1.97037037 L11.6148148,1.97037037 L11.6148148,12.5066667 C11.6148148,12.9214815 11.4696296,13.2740741 11.1792593,13.5644444 C10.8888889,13.8548148 10.5362963,14 10.1214815,14 L2.32296296,14 Z M10.3703704,1.97037037 L2.07407407,1.97037037 L2.07407407,12.5066667 C2.07407407,12.5758025 2.09840988,12.6347062 2.14708148,12.6833778 C2.1952,12.7314963 2.25382716,12.7555556 2.32296296,12.7555556 L10.1214815,12.7555556 C10.1767901,12.7555556 10.2320988,12.7279012 10.2874074,12.6725926 C10.342716,12.617284 10.3703704,12.5619753 10.3703704,12.5066667 L10.3703704,1.97037037 Z M4.06518519,11.0962963 L5.30962963,11.0962963 L5.30962963,3.62962963 L4.06518519,3.62962963 L4.06518519,11.0962963 Z M7.13481481,11.0962963 L8.37925926,11.0962963 L8.37925926,3.62962963 L7.13481481,3.62962963 L7.13481481,11.0962963 Z M2.07407407,1.97037037 L2.07407407,12.7555556 L2.07407407,12.5066667 L2.07407407,1.97037037 Z"
                                  id="Shape"></path>
                        </g>
                    </g>
                </g>
            </g>
        </g>
    </g>
</svg>