<svg width="12px" height="14px" viewBox="0 0 12 14" version="1.1" xmlns="http://www.w3.org/2000/svg">
    <g id="Settings-/-Pro" stroke="none" stroke-width="1" fill="none" fill-rule="evenodd">
        <g id="Table-Views" transform="translate(-881.000000, -370.000000)">
            <g id="Body" transform="translate(59.000000, 215.000000)" fill="#55534E" fill-rule="nonzero">
                <g id="Table-View" transform="translate(806.000000, 106.000000)">
                    <g id="duplicate" transform="translate(15.000000, 49.000000)">
                        <g id="icon/duplicate-2" transform="translate(1.000000, 0.000000)">
                            <path d="M1.4,14 C1.015,14 0.6853,13.8630333 0.4109,13.5891 C0.136966667,13.3147 0,12.985 0,12.6 L0,2.8 L1.4,2.8 L1.4,12.6 L9.1,12.6 L9.1,14 L1.4,14 Z M4.2,11.2 C3.815,11.2 3.48553333,11.0630333 3.2116,10.7891 C2.9372,10.5147 2.8,10.185 2.8,9.8 L2.8,1.4 C2.8,1.015 2.9372,0.6853 3.2116,0.4109 C3.48553333,0.136966667 3.815,0 4.2,0 L10.5,0 C10.885,0 11.2147,0.136966667 11.4891,0.4109 C11.7630333,0.6853 11.9,1.015 11.9,1.4 L11.9,9.8 C11.9,10.185 11.7630333,10.5147 11.4891,10.7891 C11.2147,11.0630333 10.885,11.2 10.5,11.2 L4.2,11.2 Z M4.2,9.8 L10.5,9.8 L10.5,1.4 L4.2,1.4 L4.2,9.8 Z M4.2,9.8 L4.2,1.4 L4.2,9.8 Z"
                                  id="Shape"></path>
                        </g>
                    </g>
                </g>
            </g>
        </g>
    </g>
</svg>