
<svg width="22px" height="19.5px" viewBox="0 0 22 19.5" version="1.1" xmlns="http://www.w3.org/2000/svg" xmlns:xlink="http://www.w3.org/1999/xlink">
    <g id="Page-1" stroke="none" stroke-width="1" fill="none" fill-rule="evenodd">
        <g id="gf-auto-stories" fill="#000000" fill-rule="nonzero">
            <path d="M11,19.5 C10.2,18.8666667 9.33333333,18.375 8.4,18.025 C7.46666667,17.675 6.5,17.5 5.5,17.5 C4.8,17.5 4.1125,17.5916667 3.4375,17.775 C2.7625,17.9583333 2.11666667,18.2166667 1.5,18.55 C1.15,18.7333333 0.8125,18.725 0.4875,18.525 C0.1625,18.325 0,18.0333333 0,17.65 L0,5.6 C0,5.41666667 0.0458333333,5.24166667 0.1375,5.075 C0.229166667,4.90833333 0.366666667,4.78333333 0.55,4.7 C1.31666667,4.3 2.11666667,4 2.95,3.8 C3.78333333,3.6 4.63333333,3.5 5.5,3.5 C6.46666667,3.5 7.4125,3.625 8.3375,3.875 C9.2625,4.125 10.15,4.5 11,5 L11,17.1 C11.85,16.5666667 12.7416667,16.1666667 13.675,15.9 C14.6083333,15.6333333 15.55,15.5 16.5,15.5 C17.1,15.5 17.6875,15.55 18.2625,15.65 C18.8375,15.75 19.4166667,15.9 20,16.1 L20,4.1 C20.25,4.18333333 20.4958333,4.27083333 20.7375,4.3625 C20.9791667,4.45416667 21.2166667,4.56666667 21.45,4.7 C21.6333333,4.78333333 21.7708333,4.90833333 21.8625,5.075 C21.9541667,5.24166667 22,5.41666667 22,5.6 L22,17.65 C22,18.0333333 21.8375,18.325 21.5125,18.525 C21.1875,18.725 20.85,18.7333333 20.5,18.55 C19.8833333,18.2166667 19.2375,17.9583333 18.5625,17.775 C17.8875,17.5916667 17.2,17.5 16.5,17.5 C15.5,17.5 14.5333333,17.675 13.6,18.025 C12.6666667,18.375 11.8,18.8666667 11,19.5 Z M13,14.5 L13,5 L18,0 L18,10 L13,14.5 Z M9,16.125 L9,6.225 C8.45,5.99166667 7.87916667,5.8125 7.2875,5.6875 C6.69583333,5.5625 6.1,5.5 5.5,5.5 C4.88333333,5.5 4.28333333,5.55833333 3.7,5.675 C3.11666667,5.79166667 2.55,5.96666667 2,6.2 L2,16.125 C2.58333333,15.9083333 3.1625,15.75 3.7375,15.65 C4.3125,15.55 4.9,15.5 5.5,15.5 C6.1,15.5 6.6875,15.55 7.2625,15.65 C7.8375,15.75 8.41666667,15.9083333 9,16.125 Z M9.0375,16.125 L9.0375,6.225 L9.0375,16.125 Z" id="Shape"></path>
        </g>
    </g>
</svg>