
<svg width="22px" height="19px" viewBox="0 0 22 19" version="1.1" xmlns="http://www.w3.org/2000/svg" xmlns:xlink="http://www.w3.org/1999/xlink">
    <g id="Page-1" stroke="none" stroke-width="1" fill="none" fill-rule="evenodd">
        <g id="gf-media" fill="#000000" fill-rule="nonzero">
            <path d="M8,11 L18,11 L14.55,6.5 L12.25,9.5 L10.7,7.5 L8,11 Z M2,19 C1.45,19 0.979166667,18.8041667 0.5875,18.4125 C0.195833333,18.0208333 0,17.55 0,17 L0,4 L2,4 L2,17 L19,17 L19,19 L2,19 Z M6,15 C5.45,15 4.97916667,14.8041667 4.5875,14.4125 C4.19583333,14.0208333 4,13.55 4,13 L4,2 C4,1.45 4.19583333,0.979166667 4.5875,0.5875 C4.97916667,0.195833333 5.45,0 6,0 L11,0 L13,2 L20,2 C20.55,2 21.0208333,2.19583333 21.4125,2.5875 C21.8041667,2.97916667 22,3.45 22,4 L22,13 C22,13.55 21.8041667,14.0208333 21.4125,14.4125 C21.0208333,14.8041667 20.55,15 20,15 L6,15 Z M6,13 L20,13 L20,4 L12.175,4 L10.175,2 L6,2 L6,13 Z M6.0375,13 L6.0375,2 L6.0375,13 Z" id="Shape"></path>
        </g>
    </g>
</svg>