<svg width="16px" height="16px" viewBox="0 0 16 16" version="1.1" xmlns="http://www.w3.org/2000/svg"
>
    <g id="Page-1" stroke="none" stroke-width="1" fill="none" fill-rule="evenodd">
        <g id="gf-user" fill="#000000" fill-rule="nonzero">
            <path d="M8,8 C6.9,8 5.95833333,7.60833333 5.175,6.825 C4.39166667,6.04166667 4,5.1 4,4 C4,2.9 4.39166667,1.95833333 5.175,1.175 C5.95833333,0.391666667 6.9,0 8,0 C9.1,0 10.0416667,0.391666667 10.825,1.175 C11.6083333,1.95833333 12,2.9 12,4 C12,5.1 11.6083333,6.04166667 10.825,6.825 C10.0416667,7.60833333 9.1,8 8,8 Z M0,16 L0,13.2 C0,12.6333333 0.145833333,12.1125 0.4375,11.6375 C0.729166667,11.1625 1.11666667,10.8 1.6,10.55 C2.63333333,10.0333333 3.68333333,9.64583333 4.75,9.3875 C5.81666667,9.12916667 6.9,9 8,9 C9.1,9 10.1833333,9.12916667 11.25,9.3875 C12.3166667,9.64583333 13.3666667,10.0333333 14.4,10.55 C14.8833333,10.8 15.2708333,11.1625 15.5625,11.6375 C15.8541667,12.1125 16,12.6333333 16,13.2 L16,16 L0,16 Z M2,14 L14,14 L14,13.2 C14,13.0166667 13.9541667,12.85 13.8625,12.7 C13.7708333,12.55 13.65,12.4333333 13.5,12.35 C12.6,11.9 11.6916667,11.5625 10.775,11.3375 C9.85833333,11.1125 8.93333333,11 8,11 C7.06666667,11 6.14166667,11.1125 5.225,11.3375 C4.30833333,11.5625 3.4,11.9 2.5,12.35 C2.35,12.4333333 2.22916667,12.55 2.1375,12.7 C2.04583333,12.85 2,13.0166667 2,13.2 L2,14 Z M8,6 C8.55,6 9.02083333,5.80416667 9.4125,5.4125 C9.80416667,5.02083333 10,4.55 10,4 C10,3.45 9.80416667,2.97916667 9.4125,2.5875 C9.02083333,2.19583333 8.55,2 8,2 C7.45,2 6.97916667,2.19583333 6.5875,2.5875 C6.19583333,2.97916667 6,3.45 6,4 C6,4.55 6.19583333,5.02083333 6.5875,5.4125 C6.97916667,5.80416667 7.45,6 8,6 Z"
                  id="Shape"></path>
        </g>
    </g>
</svg>