<svg width="3px" height="11px" viewBox="0 0 3 11" version="1.1" xmlns="http://www.w3.org/2000/svg" xmlns:xlink="http://www.w3.org/1999/xlink">
    <g id="Settings-/-Pro" stroke="none" stroke-width="1" fill="none" fill-rule="evenodd">
        <g id="Table-Views" transform="translate(-697.000000, -278.000000)" fill="#5D5D5D" fill-rule="nonzero">
            <g id="Body" transform="translate(59.000000, 215.000000)">
                <g id="Menu-Copy-4" transform="translate(0.000000, 52.000000)">
                    <g id="icon:more-20" transform="translate(638.000000, 11.000000)">
                        <path d="M1.083,10.792 C0.777666667,10.792 0.520666667,10.6843333 0.312,10.469 C0.104,10.2536667 0,10 0,9.708 C0,9.40266667 0.107666667,9.146 0.323,8.938 C0.537666667,8.72933333 0.791,8.625 1.083,8.625 C1.38833333,8.625 1.64533333,8.72933333 1.854,8.938 C2.062,9.146 2.166,9.40266667 2.166,9.708 C2.166,10.014 2.05833333,10.271 1.843,10.479 C1.62833333,10.6876667 1.375,10.792 1.083,10.792 L1.083,10.792 Z M1.083,6.479 C0.777666667,6.479 0.520666667,6.37133333 0.312,6.156 C0.104,5.94133333 0,5.688 0,5.396 C0,5.09066667 0.107666667,4.83366667 0.323,4.625 C0.537666667,4.417 0.791,4.313 1.083,4.313 C1.38833333,4.313 1.64533333,4.42066667 1.854,4.636 C2.062,4.85066667 2.166,5.104 2.166,5.396 C2.166,5.70133333 2.05833333,5.95833333 1.843,6.167 C1.62833333,6.375 1.375,6.479 1.083,6.479 Z M1.083,2.167 C0.777666667,2.167 0.520666667,2.06266667 0.312,1.854 C0.104,1.646 0,1.38933333 0,1.084 C0,0.778 0.107666667,0.521 0.323,0.313 C0.537666667,0.104333333 0.791,0 1.083,0 C1.38833333,0 1.64533333,0.107666667 1.854,0.323 C2.062,0.538333333 2.166,0.792 2.166,1.084 C2.166,1.38933333 2.05833333,1.646 1.843,1.854 C1.62833333,2.06266667 1.375,2.167 1.083,2.167 L1.083,2.167 Z" id="icon/more20"></path>
                    </g>
                </g>
            </g>
        </g>
    </g>
</svg>