<?xml version="1.0" encoding="UTF-8" standalone="no"?>
<svg width="20px" height="20px" viewBox="0 0 20 20" version="1.1" xmlns="http://www.w3.org/2000/svg" xmlns:xlink="http://www.w3.org/1999/xlink">
    <g id="Concept-/-UI-2.0" stroke="none" stroke-width="1" fill="none" fill-rule="evenodd">
        <g id="Column-Editor-with-Templates" transform="translate(-1786, -303)">
            <g id="Content" transform="translate(0, 108)" fill="#000000" fill-rule="nonzero">
                <g id="Side:-Table-Views-Alt" transform="translate(1492, 71)">
                    <g id="icon/help" transform="translate(294, 124)">
                        <path d="M9.95,16 C10.3,16 10.5958333,15.8791667 10.8375,15.6375 C11.0791667,15.3958333 11.2,15.1 11.2,14.75 C11.2,14.4 11.0791667,14.1041667 10.8375,13.8625 C10.5958333,13.6208333 10.3,13.5 9.95,13.5 C9.6,13.5 9.30416667,13.6208333 9.0625,13.8625 C8.82083333,14.1041667 8.7,14.4 8.7,14.75 C8.7,15.1 8.82083333,15.3958333 9.0625,15.6375 C9.30416667,15.8791667 9.6,16 9.95,16 Z M9.05,12.15 L10.9,12.15 C10.9,11.6 10.9625,11.1666667 11.0875,10.85 C11.2125,10.5333333 11.5666667,10.1 12.15,9.55 C12.5833333,9.11666667 12.925,8.70416667 13.175,8.3125 C13.425,7.92083333 13.55,7.45 13.55,6.9 C13.55,5.96666667 13.2083333,5.25 12.525,4.75 C11.8416667,4.25 11.0333333,4 10.1,4 C9.15,4 8.37916667,4.25 7.7875,4.75 C7.19583333,5.25 6.78333333,5.85 6.55,6.55 L8.2,7.2 C8.28333333,6.9 8.47083333,6.575 8.7625,6.225 C9.05416667,5.875 9.5,5.7 10.1,5.7 C10.6333333,5.7 11.0333333,5.84583333 11.3,6.1375 C11.5666667,6.42916667 11.7,6.75 11.7,7.1 C11.7,7.43333333 11.6,7.74583333 11.4,8.0375 C11.2,8.32916667 10.95,8.6 10.65,8.85 C9.91666667,9.5 9.46666667,9.99166667 9.3,10.325 C9.13333333,10.6583333 9.05,11.2666667 9.05,12.15 Z M10,20 C8.61666667,20 7.31666667,19.7375 6.1,19.2125 C4.88333333,18.6875 3.825,17.975 2.925,17.075 C2.025,16.175 1.3125,15.1166667 0.7875,13.9 C0.2625,12.6833333 0,11.3833333 0,10 C0,8.61666667 0.2625,7.31666667 0.7875,6.1 C1.3125,4.88333333 2.025,3.825 2.925,2.925 C3.825,2.025 4.88333333,1.3125 6.1,0.7875 C7.31666667,0.2625 8.61666667,0 10,0 C11.3833333,0 12.6833333,0.2625 13.9,0.7875 C15.1166667,1.3125 16.175,2.025 17.075,2.925 C17.975,3.825 18.6875,4.88333333 19.2125,6.1 C19.7375,7.31666667 20,8.61666667 20,10 C20,11.3833333 19.7375,12.6833333 19.2125,13.9 C18.6875,15.1166667 17.975,16.175 17.075,17.075 C16.175,17.975 15.1166667,18.6875 13.9,19.2125 C12.6833333,19.7375 11.3833333,20 10,20 Z M10,18 C12.2333333,18 14.125,17.225 15.675,15.675 C17.225,14.125 18,12.2333333 18,10 C18,7.76666667 17.225,5.875 15.675,4.325 C14.125,2.775 12.2333333,2 10,2 C7.76666667,2 5.875,2.775 4.325,4.325 C2.775,5.875 2,7.76666667 2,10 C2,12.2333333 2.775,14.125 4.325,15.675 C5.875,17.225 7.76666667,18 10,18 Z" id="Shape"></path>
                    </g>
                </g>
            </g>
        </g>
    </g>
</svg>