<svg width="14px" height="15px" viewBox="0 0 14 15" version="1.1" xmlns="http://www.w3.org/2000/svg">
    <g id="Settings-/-Pro" stroke="none" stroke-width="1" fill="none" fill-rule="evenodd">
        <g id="Table-Views" transform="translate(-881.000000, -332.000000)">
            <g id="Body" transform="translate(59.000000, 215.000000)" fill="#5D5D5D" fill-rule="nonzero">
                <g id="Table-View" transform="translate(806.000000, 106.000000)">
                    <g id="rename" transform="translate(15.000000, 11.000000)">
                        <g id="icon/rename-2" transform="translate(1.000000, 0.175000)">
                            <path d="M1.36419001,14 C0.989037759,14 0.667771011,13.8663094 0.400389769,13.5989281 C0.133463256,13.3320016 0,13.0109622 0,12.63581 L0,3.0864799 C0,2.71132765 0.133463256,2.3900609 0.400389769,2.12267966 C0.667771011,1.85575315 0.989037759,1.72228989 1.36419001,1.72228989 L7.45188794,1.72228989 L6.08769793,3.0864799 L1.36419001,3.0864799 L1.36419001,12.63581 L10.9135201,12.63581 L10.9135201,7.8952497 L12.2777101,6.53105968 L12.2777101,12.63581 C12.2777101,13.0109622 12.1442469,13.3320016 11.8773203,13.5989281 C11.6099391,13.8663094 11.2886724,14 10.9135201,14 L1.36419001,14 Z M8.98660171,2.11449452 L9.95858709,3.06942753 L5.45676005,7.57125457 L5.45676005,8.54323995 L6.41169306,8.54323995 L10.9305725,4.02436054 L11.9025579,4.97929354 L6.99147381,9.90742996 L4.09257004,9.90742996 L4.09257004,7.00852619 L8.98660171,2.11449452 Z M11.9025579,4.97929354 L8.98660171,2.11449452 L10.6918392,0.409257004 C10.9646772,0.136419001 11.2916281,0 11.6726918,0 C12.0533009,0 12.3743402,0.136419001 12.63581,0.409257004 L13.590743,1.38124239 C13.8522127,1.64271214 13.9829476,1.96102314 13.9829476,2.3361754 C13.9829476,2.71132765 13.8522127,3.02963865 13.590743,3.2911084 L11.9025579,4.97929354 Z"></path>
                        </g>
                    </g>
                </g>
            </g>
        </g>
    </g>
</svg>