<svg width="21.25px" height="18px" viewBox="0 0 21.25 18" version="1.1" xmlns="http://www.w3.org/2000/svg" xmlns:xlink="http://www.w3.org/1999/xlink">
    <g id="Page-1" stroke="none" stroke-width="1" fill="none" fill-rule="evenodd">
        <g id="lock_reset_FILL0_wght400_GRAD0_opsz24" fill="#000000" fill-rule="nonzero">
            <path d="M12.25,18 C11.0166667,18 9.8625,17.7708333 8.7875,17.3125 C7.7125,16.8541667 6.76666667,16.225 5.95,15.425 L7.375,14 C8.00833333,14.6166667 8.74166667,15.1041667 9.575,15.4625 C10.4083333,15.8208333 11.3,16 12.25,16 C14.1833333,16 15.8333333,15.3166667 17.2,13.95 C18.5666667,12.5833333 19.25,10.9333333 19.25,9 C19.25,7.06666667 18.5666667,5.41666667 17.2,4.05 C15.8333333,2.68333333 14.1833333,2 12.25,2 C10.3166667,2 8.66666667,2.68333333 7.3,4.05 C5.93333333,5.41666667 5.25,7.06666667 5.25,9 L5.25,9.175 L7.075,7.35 L8.5,8.75 L4.25,13 L0,8.75 L1.425,7.35 L3.25,9.2 L3.25,9 C3.25,7.75 3.4875,6.57916667 3.9625,5.4875 C4.4375,4.39583333 5.07916667,3.44583333 5.8875,2.6375 C6.69583333,1.82916667 7.64583333,1.1875 8.7375,0.7125 C9.82916667,0.2375 11,0 12.25,0 C13.5,0 14.6708333,0.2375 15.7625,0.7125 C16.8541667,1.1875 17.8041667,1.82916667 18.6125,2.6375 C19.4208333,3.44583333 20.0625,4.39583333 20.5375,5.4875 C21.0125,6.57916667 21.25,7.75 21.25,9 C21.25,11.5 20.375,13.625 18.625,15.375 C16.875,17.125 14.75,18 12.25,18 Z M10.25,13 C9.96666667,13 9.72916667,12.9041667 9.5375,12.7125 C9.34583333,12.5208333 9.25,12.2833333 9.25,12 L9.25,9 C9.25,8.71666667 9.34583333,8.47916667 9.5375,8.2875 C9.72916667,8.09583333 9.96666667,8 10.25,8 L10.25,7 C10.25,6.45 10.4458333,5.97916667 10.8375,5.5875 C11.2291667,5.19583333 11.7,5 12.25,5 C12.8,5 13.2708333,5.19583333 13.6625,5.5875 C14.0541667,5.97916667 14.25,6.45 14.25,7 L14.25,8 C14.5333333,8 14.7708333,8.09583333 14.9625,8.2875 C15.1541667,8.47916667 15.25,8.71666667 15.25,9 L15.25,12 C15.25,12.2833333 15.1541667,12.5208333 14.9625,12.7125 C14.7708333,12.9041667 14.5333333,13 14.25,13 L10.25,13 Z M11.25,8 L13.25,8 L13.25,7 C13.25,6.71666667 13.1541667,6.47916667 12.9625,6.2875 C12.7708333,6.09583333 12.5333333,6 12.25,6 C11.9666667,6 11.7291667,6.09583333 11.5375,6.2875 C11.3458333,6.47916667 11.25,6.71666667 11.25,7 L11.25,8 Z" id="Shape"></path>
        </g>
    </g>
</svg>