<?xml version="1.0" encoding="UTF-8"?>
<svg width="21px" height="22px" viewBox="0 0 21 22" version="1.1" xmlns="http://www.w3.org/2000/svg" xmlns:xlink="http://www.w3.org/1999/xlink">
    <!-- Generator: Sketch 63.1 (92452) - https://sketch.com -->
    <title>Combined Shape</title>
    <desc>Created with Sketch.</desc>
    <g id="Symbols" stroke="none" stroke-width="1" fill="none" fill-rule="evenodd">
        <g id="Icon/SmartFilterLarge-Copy-5" fill="#B2B2B2" fill-rule="nonzero">
            <path d="M11.5,0 C12.9860335,0 14.5428305,0.117737003 16.1703911,0.353211009 C17.3379888,0.521406728 18.5055866,0.72324159 19.6731844,0.958715596 L19.6731844,0.958715596 L21,1.31192661 L21,3.8853211 L14.2067039,12.9678899 L14.2067039,22 L13.198324,21.8486239 C12.4199255,21.6804281 11.7388268,21.4617737 11.1550279,21.1926606 C10.5712291,20.9235474 9.99627561,20.5535168 9.4301676,20.0825688 L9.4301676,20.0825688 L8.79329609,19.3761468 L8.99554954,15.7450967 L5.34472073,22 L4.72230049,22 L5.59017233,13.7722004 L0.248611017,13.7722004 L4.28482098,6.94010385 L2,3.8853211 L2,1.31192661 L3.32681564,0.958715596 C4.49441341,0.72324159 5.66201117,0.521406728 6.82960894,0.353211009 C8.45716946,0.117737003 10.0139665,0 11.5,0 Z M7.01097841,4.29397079 L1.88898727,12.8089611 L6.68858582,12.8089611 L6.0190445,18.6041507 L11,10.2697678 L6.22890913,10.2697678 L7.01097841,4.29397079 Z" id="Combined-Shape"></path>
        </g>
    </g>
</svg>