<svg width="16px" height="16px" viewBox="0 0 16 16" version="1.1" xmlns="http://www.w3.org/2000/svg" xmlns:xlink="http://www.w3.org/1999/xlink">
    <g id="Page-1" stroke="none" stroke-width="1" fill="none" fill-rule="evenodd">
        <g id="text-wrap" fill="#000000" fill-rule="nonzero">
            <path d="M0,16 L0,0 L2,0 L2,16 L0,16 Z M14,16 L14,0 L16,0 L16,16 L14,16 Z M6.6,13.55 L3.05,10 L6.6,6.475 L8,7.875 L6.875,9 L9,9 C9.55,9 10.0208333,8.80416667 10.4125,8.4125 C10.8041667,8.02083333 11,7.55 11,7 C11,6.45 10.8041667,5.97916667 10.4125,5.5875 C10.0208333,5.19583333 9.55,5 9,5 L3,5 L3,3 L9,3 C10.1,3 11.0416667,3.39166667 11.825,4.175 C12.6083333,4.95833333 13,5.9 13,7 C13,8.1 12.6083333,9.04166667 11.825,9.825 C11.0416667,10.6083333 10.1,11 9,11 L6.875,11 L8,12.125 L6.6,13.55 Z" id="Shape"></path>
        </g>
    </g>
</svg>