<svg width="20px" height="20px" viewBox="0 0 20 20" version="1.1" xmlns="http://www.w3.org/2000/svg" xmlns:xlink="http://www.w3.org/1999/xlink">
    <g id="Page-1" stroke="none" stroke-width="1" fill="none" fill-rule="evenodd">
        <g id="switch_account_FILL0_wght400_GRAD0_opsz24" fill="#000000" fill-rule="nonzero">
            <path d="M12,9 C12.8333333,9 13.5416667,8.70833333 14.125,8.125 C14.7083333,7.54166667 15,6.83333333 15,6 C15,5.16666667 14.7083333,4.45833333 14.125,3.875 C13.5416667,3.29166667 12.8333333,3 12,3 C11.1666667,3 10.4583333,3.29166667 9.875,3.875 C9.29166667,4.45833333 9,5.16666667 9,6 C9,6.83333333 9.29166667,7.54166667 9.875,8.125 C10.4583333,8.70833333 11.1666667,9 12,9 Z M6,13.75 C6.75,12.8666667 7.65,12.1875 8.7,11.7125 C9.75,11.2375 10.85,11 12,11 C13.15,11 14.25,11.2375 15.3,11.7125 C16.35,12.1875 17.25,12.8666667 18,13.75 L18,2 L6,2 L6,13.75 Z M6,16 C5.45,16 4.97916667,15.8041667 4.5875,15.4125 C4.19583333,15.0208333 4,14.55 4,14 L4,2 C4,1.45 4.19583333,0.979166667 4.5875,0.5875 C4.97916667,0.195833333 5.45,0 6,0 L18,0 C18.55,0 19.0208333,0.195833333 19.4125,0.5875 C19.8041667,0.979166667 20,1.45 20,2 L20,14 C20,14.55 19.8041667,15.0208333 19.4125,15.4125 C19.0208333,15.8041667 18.55,16 18,16 L6,16 Z M2,20 C1.45,20 0.979166667,19.8041667 0.5875,19.4125 C0.195833333,19.0208333 0,18.55 0,18 L0,4 L2,4 L2,18 L16,18 L16,20 L2,20 Z M12,7 C11.7166667,7 11.4791667,6.90416667 11.2875,6.7125 C11.0958333,6.52083333 11,6.28333333 11,6 C11,5.71666667 11.0958333,5.47916667 11.2875,5.2875 C11.4791667,5.09583333 11.7166667,5 12,5 C12.2833333,5 12.5208333,5.09583333 12.7125,5.2875 C12.9041667,5.47916667 13,5.71666667 13,6 C13,6.28333333 12.9041667,6.52083333 12.7125,6.7125 C12.5208333,6.90416667 12.2833333,7 12,7 Z M8.7,14 L15.3,14 C14.8166667,13.6666667 14.2916667,13.4166667 13.725,13.25 C13.1583333,13.0833333 12.5833333,13 12,13 C11.4166667,13 10.8416667,13.0833333 10.275,13.25 C9.70833333,13.4166667 9.18333333,13.6666667 8.7,14 Z" id="Shape"></path>
        </g>
    </g>
</svg>