
<svg width="146px" height="146px" viewBox="0 0 146 146" version="1.1" xmlns="http://www.w3.org/2000/svg" xmlns:xlink="http://www.w3.org/1999/xlink">
    <g id="Page-1" stroke="none" stroke-width="1" fill="none" fill-rule="evenodd">
        <g id="Square-Icons" fill="#000000" transform="translate(5, 39)">
            <path d="M121.770153,0 C115.005145,0 110.600023,2.24 106.666878,9.76 L88.7317396,44.1599999 L88.7317396,13.6 C88.7317396,4.47999999 84.4839437,0 76.6176545,0 C68.7513656,0 65.4475242,2.72 61.5143797,10.4 L44.5231956,44.1599999 L44.5231956,13.92 C44.5231956,4.15999999 40.590051,0 30.9931787,0 L11.4847819,0 C4.09047026,0 0,3.51999999 0,9.91999999 C0,16.32 3.93314449,20.16 11.1701304,20.16 L19.1937451,20.16 L19.1937451,58.7200001 C19.1937451,69.6 26.4307309,76 36.8142325,76 C47.1977338,76 51.9175073,71.8399999 57.109258,62.0800001 L68.4367141,40.4800001 L68.4367141,58.7200001 C68.4367141,69.44 75.3590484,76 85.8998755,76 C96.4407029,76 100.373847,72.3199999 106.352227,62.0800001 L132.468306,17.28 C138.132034,7.51999999 134.19889,0 121.612827,0 C121.612827,0 121.612827,0 121.770153,0 Z" id="Path" fill-rule="nonzero"></path>
        </g>
    </g>
</svg>