
<svg width="20px" height="20px" viewBox="0 0 20 20" version="1.1" xmlns="http://www.w3.org/2000/svg" xmlns:xlink="http://www.w3.org/1999/xlink">
    <g id="Page-1" stroke="none" stroke-width="1" fill="none" fill-rule="evenodd">
        <g id="Artboard" transform="translate(-41, -16)" fill="#94A3B8">
            <g id="Group" transform="translate(41, 16)">
                <path d="M18,0 C19.1045695,-2.02906125e-16 20,0.8954305 20,2 L20,18 C20,19.1045695 19.1045695,20 18,20 L2,20 C0.8954305,20 -8.67738547e-17,19.1045695 0,18 L0,2 C-1.3527075e-16,0.8954305 0.8954305,-1.91384796e-17 2,0 L18,0 Z M15.3099917,4.00100557 L15.1696993,4.00410445 C14.8107581,4.02896154 14.5384005,4.20224759 14.3528643,4.54881967 C13.5855056,5.94735817 13.0409093,8.21232689 12.7190754,11.355976 C12.2488125,10.1678308 11.8527641,8.76917333 11.5432993,7.12313431 C11.4071205,6.3928829 11.0730364,6.04642974 10.5284401,6.08353698 C10.1571299,6.10827514 9.847665,6.35577566 9.60004555,6.82615747 L6.88955211,11.9872748 C6.44402739,10.1926879 6.02324082,8.00193361 5.6395615,5.41513096 C5.55297794,4.7714631 5.19403677,4.47448626 4.56273799,4.52408152 C4.2161659,4.54881967 3.95629631,4.67251047 3.78301026,4.90776084 C3.60972422,5.13040427 3.53550974,5.41513096 3.58510499,5.73696489 C4.31523747,10.378224 4.99601257,13.509623 5.62719242,15.1310428 C5.87469294,15.7249964 6.15930069,16.0097231 6.4935037,15.984985 C7.01336183,15.9478777 7.6321726,15.2299954 8.36242402,13.831338 C8.74610334,13.0392412 9.34017595,11.8510959 10.1447608,10.2669023 C10.8130479,12.6060855 11.7289544,14.3635652 12.8799924,15.5394603 C13.2018263,15.8736633 13.5359104,16.0220922 13.8577443,15.9973541 C14.142471,15.9726159 14.3651144,15.824068 14.5137812,15.5518293 C14.637472,15.316579 14.6870673,15.0442214 14.6622102,14.7349944 C14.5879957,13.6086945 14.6994364,12.0367511 15.0087823,10.0192829 C15.3304973,7.94008821 15.7266646,6.44247815 16.2094155,5.55130977 C16.3083681,5.36565464 16.3454754,5.17999952 16.3331063,4.95723716 C16.3083681,4.67251047 16.1845584,4.43737903 15.949427,4.2517239 C15.7142955,4.06606878 15.4544259,3.97948522 15.1696993,4.00410445 Z" id="Combined-Shape"></path>
            </g>
        </g>
    </g>
</svg>